<svg width="250" height="70" viewBox="0 0 250 70" fill="none" xmlns="http://www.w3.org/2000/svg">
<path d="M91.6562 35.6979C91.6562 25.2524 98.5165 17.6851 108.466 17.6851C116.827 17.6851 122.546 22.5108 124.084 29.0733L117.522 30.6612C116.281 26.0836 113.242 23.5032 108.466 23.5032C102.399 23.5032 98.5661 28.5275 98.5661 35.6855C98.5661 42.8435 102.548 47.8677 108.714 47.8677C113.589 47.8677 116.579 45.2377 117.819 40.3623L124.035 41.0571C122.546 48.8601 116.777 53.6983 108.615 53.6983C98.5661 53.6983 91.6562 46.1309 91.6562 35.6855V35.6979Z" fill="black"/>
<path d="M126.727 40.4247C126.727 32.7084 132.148 27.188 139.666 27.188C147.183 27.188 152.604 32.7084 152.604 40.4247C152.604 48.1409 147.183 53.711 139.666 53.711C132.148 53.711 126.727 48.1409 126.727 40.4247ZM146.129 40.4247C146.129 35.6486 143.586 32.4603 139.666 32.4603C135.745 32.4603 133.202 35.6486 133.202 40.4247C133.202 45.2008 135.795 48.4386 139.666 48.4386C143.536 48.4386 146.129 45.2504 146.129 40.4247Z" fill="black"/>
<path d="M163.137 53.1153H156.673V27.7957H162.988V28.7881C162.988 30.0783 162.889 30.9715 162.541 32.8199L163.137 33.0184C164.675 29.3339 167.02 27.2002 171.349 27.2002C176.87 27.2002 179.81 30.6861 179.81 36.6036V53.1153H173.346V36.8021C173.346 33.9116 171.907 32.3237 169.017 32.3237C165.729 32.3237 163.149 34.8048 163.149 39.1839V53.1153H163.137Z" fill="black"/>
<path d="M183.531 46.2553L189.598 45.0643C190.243 47.7563 192.389 49.0961 195.217 49.0961C198.046 49.0961 199.646 47.9548 199.646 46.0072C199.646 44.0595 197.76 43.6749 194.175 43.0174C189.647 42.3227 183.779 41.4791 183.779 35.202C183.779 30.4755 187.811 27.188 194.374 27.188C200.192 27.188 204.72 29.6195 205.762 34.5445L199.646 35.5369C199.1 33.0558 197.066 31.7532 194.374 31.7532C191.434 31.7532 190.044 32.9938 190.044 34.6933C190.044 36.6286 191.979 37.0256 195.565 37.6831C200.043 38.3778 205.911 39.2213 205.911 45.4985C205.911 50.4235 201.929 53.711 195.217 53.711C189.151 53.711 184.623 51.2175 183.531 46.2429V46.2553Z" fill="black"/>
<path d="M226.318 27.7957H232.781V53.1153H226.467V52.1229C226.467 50.8327 226.566 49.8899 226.864 48.0415L226.318 47.8926C224.78 51.577 222.385 53.7108 218.056 53.7108C212.536 53.7108 209.645 50.2248 209.645 44.3074V27.7957H216.108V43.7616C216.108 46.9994 217.498 48.5873 220.587 48.5873C223.874 48.5873 226.306 46.1062 226.306 41.6774V27.7957H226.318Z" fill="black"/>
<path d="M246.018 46.8011C246.018 47.7439 246.365 48.0417 247.06 48.0417H250V53.1155H244.033C241.093 53.1155 239.554 51.478 239.554 48.4386V22.4243H235.969V17.3008H246.018V46.8011Z" fill="black"/>
<path d="M34.8387 69.987C29.1694 69.987 23.5993 68.61 18.5875 65.9676C13.5756 63.3252 9.28332 59.5043 6.0827 54.8275C2.88207 50.1506 0.872381 44.7666 0.227294 39.1469C-0.417793 33.5148 0.314133 27.8206 2.37345 22.5483C4.43277 17.276 7.74504 12.5743 12.0249 8.86501C16.3048 5.15576 21.4283 2.5506 26.9488 1.27283C32.4692 -0.0049383 38.213 0.0819004 43.6838 1.53335C49.1547 2.98479 54.2037 5.73882 58.372 9.57212L50.1099 18.2064C46.8224 15.2414 42.7534 13.2938 38.3867 12.5991C34.0199 11.9044 29.5415 12.4874 25.4973 14.2862C21.4531 16.085 18.0168 19.0127 15.6101 22.722C13.2035 26.4312 11.9133 30.7608 11.9133 35.1895C11.9133 39.6183 13.1911 43.9478 15.6101 47.6571C18.0168 51.3663 21.4531 54.294 25.4973 56.0928C29.5415 57.8916 34.0199 58.4747 38.3867 57.78C42.7534 57.0853 46.8348 55.1376 50.1099 52.1727L58.372 60.8069C51.9583 66.712 43.5474 69.9994 34.8263 69.987H34.8387Z" fill="#E03875"/>
<path d="M62.8378 52.582C62.2796 52.582 61.7213 52.4207 61.2499 52.0981C60.7785 51.788 60.4187 51.3414 60.1954 50.8204C59.9846 50.2993 59.9225 49.7287 60.0342 49.1704C60.1458 48.6122 60.4187 48.1036 60.8157 47.7066C61.2127 47.3096 61.7213 47.0367 62.2796 46.925C62.8378 46.8134 63.4085 46.8754 63.9295 47.0863C64.4505 47.2972 64.8971 47.6694 65.2073 48.1408C65.5174 48.6122 65.6911 49.158 65.6911 49.7287C65.6911 50.4854 65.3934 51.2049 64.8599 51.7384C64.3265 52.2718 63.5946 52.5696 62.8502 52.5696L62.8378 52.582Z" fill="#E03875"/>
<path d="M34.6157 42.7318C33.1271 42.7318 31.6632 42.2977 30.4227 41.4789C29.1821 40.6477 28.2021 39.4816 27.6314 38.1046C27.0608 36.7276 26.8995 35.2141 27.1848 33.7502C27.4702 32.2864 28.1897 30.9342 29.2441 29.8797C30.2986 28.8253 31.6384 28.1057 33.1023 27.808C34.5661 27.5103 36.0796 27.6591 37.469 28.2298C38.846 28.8004 40.0245 29.7681 40.8557 31.0086C41.6869 32.2492 42.1211 33.713 42.1211 35.2017C42.1211 37.199 41.3271 39.1094 39.9253 40.5113C38.5235 41.9255 36.613 42.7194 34.6157 42.7318Z" fill="#E03875"/>
<path d="M66.1132 42.8683C65.555 42.8683 64.9967 42.7071 64.5253 42.3845C64.0539 42.0744 63.6941 41.6278 63.4708 41.1068C63.2599 40.5857 63.1979 40.0151 63.3096 39.4568C63.4212 38.8986 63.6941 38.3899 64.0911 37.993C64.4881 37.596 64.9967 37.3231 65.555 37.2114C66.1132 37.0998 66.6839 37.1618 67.2049 37.3727C67.7259 37.5836 68.1725 37.9558 68.4827 38.4272C68.7928 38.8986 68.9665 39.4444 68.9665 40.0151C68.9665 40.7718 68.6688 41.4913 68.1353 42.0248C67.6019 42.5582 66.8699 42.8559 66.1256 42.8559L66.1132 42.8683Z" fill="#E03875"/>
<path d="M57.6279 42.5085C57.0572 42.5085 56.5114 42.3349 56.04 42.0247C55.5686 41.7146 55.2088 41.268 54.9855 40.7345C54.7746 40.2135 54.7126 39.6305 54.8242 39.0846C54.9359 38.5264 55.2088 38.0177 55.6182 37.6208C56.0151 37.2238 56.5362 36.9509 57.082 36.8516C57.6403 36.74 58.2109 36.802 58.732 37.0253C59.253 37.2486 59.6996 37.6208 60.0097 38.0922C60.3199 38.5636 60.4811 39.1218 60.4687 39.6801C60.4687 40.4368 60.1586 41.1439 59.6252 41.6774C59.0917 42.2108 58.3722 42.4961 57.6155 42.4961L57.6279 42.5085Z" fill="#E03875"/>
<path d="M66.1132 33.2541C65.555 33.2541 64.9967 33.0804 64.5253 32.7703C64.0539 32.4601 63.6941 32.0135 63.4708 31.4925C63.2599 30.9715 63.1979 30.4008 63.3096 29.8426C63.4212 29.2843 63.6941 28.7757 64.0911 28.3787C64.4881 27.9817 64.9967 27.7088 65.555 27.5972C66.1132 27.4855 66.6839 27.5475 67.2049 27.7584C67.7259 27.9693 68.1725 28.3415 68.4827 28.8129C68.7928 29.2843 68.9665 29.8302 68.9665 30.4008C68.9665 31.1576 68.6688 31.8771 68.1353 32.4105C67.6019 32.9439 66.8699 33.2417 66.1256 33.2417L66.1132 33.2541Z" fill="#E03875"/>
<path d="M57.6279 33.5766C57.0696 33.5766 56.5114 33.4153 56.04 33.0928C55.5686 32.7826 55.2088 32.336 54.9855 31.815C54.7746 31.294 54.7126 30.7233 54.8242 30.1651C54.9359 29.6068 55.2088 29.0982 55.6058 28.7012C56.0027 28.3042 56.5114 28.0313 57.0696 27.9197C57.6279 27.808 58.1985 27.8701 58.7196 28.0809C59.2406 28.2918 59.6872 28.664 59.9973 29.1354C60.3075 29.6068 60.4811 30.1527 60.4811 30.7233C60.4811 31.4801 60.1834 32.1996 59.65 32.7454C59.1165 33.2789 58.3846 33.5766 57.6279 33.5766Z" fill="#E03875"/>
<path d="M62.999 23.6648C62.4407 23.6648 61.8825 23.5035 61.411 23.1934C60.9396 22.8832 60.5799 22.4366 60.3566 21.9156C60.1457 21.3946 60.0837 20.8239 60.1953 20.2657C60.307 19.7074 60.5799 19.1988 60.9769 18.8018C61.3738 18.4048 61.8825 18.1319 62.4407 18.0203C62.999 17.9086 63.5696 17.9706 64.0906 18.1815C64.6117 18.3924 65.0583 18.7646 65.3684 19.236C65.6785 19.7074 65.8522 20.2533 65.8522 20.8239C65.8522 21.5806 65.5545 22.3002 65.0211 22.8336C64.4876 23.367 63.7681 23.6648 63.0114 23.6772L62.999 23.6648Z" fill="#E03875"/>
<path d="M91.6562 35.6979C91.6562 25.2524 98.5165 17.6851 108.466 17.6851C116.827 17.6851 122.546 22.5108 124.084 29.0733L117.522 30.6612C116.281 26.0836 113.242 23.5032 108.466 23.5032C102.399 23.5032 98.5661 28.5275 98.5661 35.6855C98.5661 42.8435 102.548 47.8677 108.714 47.8677C113.589 47.8677 116.579 45.2377 117.819 40.3623L124.035 41.0571C122.546 48.8601 116.777 53.6983 108.615 53.6983C98.5661 53.6983 91.6562 46.1309 91.6562 35.6855V35.6979Z" fill="black"/>
<path d="M126.727 40.4247C126.727 32.7084 132.148 27.188 139.666 27.188C147.183 27.188 152.604 32.7084 152.604 40.4247C152.604 48.1409 147.183 53.711 139.666 53.711C132.148 53.711 126.727 48.1409 126.727 40.4247ZM146.129 40.4247C146.129 35.6486 143.586 32.4603 139.666 32.4603C135.745 32.4603 133.202 35.6486 133.202 40.4247C133.202 45.2008 135.795 48.4386 139.666 48.4386C143.536 48.4386 146.129 45.2504 146.129 40.4247Z" fill="black"/>
<path d="M163.137 53.1153H156.673V27.7957H162.988V28.7881C162.988 30.0783 162.889 30.9715 162.541 32.8199L163.137 33.0184C164.675 29.3339 167.02 27.2002 171.349 27.2002C176.87 27.2002 179.81 30.6861 179.81 36.6036V53.1153H173.346V36.8021C173.346 33.9116 171.907 32.3237 169.017 32.3237C165.729 32.3237 163.149 34.8048 163.149 39.1839V53.1153H163.137Z" fill="black"/>
<path d="M183.531 46.2553L189.598 45.0643C190.243 47.7563 192.389 49.0961 195.217 49.0961C198.046 49.0961 199.646 47.9548 199.646 46.0072C199.646 44.0595 197.76 43.6749 194.175 43.0174C189.647 42.3227 183.779 41.4791 183.779 35.202C183.779 30.4755 187.811 27.188 194.374 27.188C200.192 27.188 204.72 29.6195 205.762 34.5445L199.646 35.5369C199.1 33.0558 197.066 31.7532 194.374 31.7532C191.434 31.7532 190.044 32.9938 190.044 34.6933C190.044 36.6286 191.979 37.0256 195.565 37.6831C200.043 38.3778 205.911 39.2213 205.911 45.4985C205.911 50.4235 201.929 53.711 195.217 53.711C189.151 53.711 184.623 51.2175 183.531 46.2429V46.2553Z" fill="black"/>
<path d="M226.318 27.7957H232.781V53.1153H226.467V52.1229C226.467 50.8327 226.566 49.8899 226.864 48.0415L226.318 47.8926C224.78 51.577 222.385 53.7108 218.056 53.7108C212.536 53.7108 209.645 50.2248 209.645 44.3074V27.7957H216.108V43.7616C216.108 46.9994 217.498 48.5873 220.587 48.5873C223.874 48.5873 226.306 46.1062 226.306 41.6774V27.7957H226.318Z" fill="black"/>
<path d="M246.018 46.8011C246.018 47.7439 246.365 48.0417 247.06 48.0417H250V53.1155H244.033C241.093 53.1155 239.554 51.478 239.554 48.4386V22.4243H235.969V17.3008H246.018V46.8011Z" fill="black"/>
<path d="M34.8387 69.987C29.1694 69.987 23.5993 68.61 18.5875 65.9676C13.5756 63.3252 9.28332 59.5043 6.0827 54.8275C2.88207 50.1506 0.872381 44.7666 0.227294 39.1469C-0.417793 33.5148 0.314133 27.8206 2.37345 22.5483C4.43277 17.276 7.74504 12.5743 12.0249 8.86501C16.3048 5.15576 21.4283 2.5506 26.9488 1.27283C32.4692 -0.0049383 38.213 0.0819004 43.6838 1.53335C49.1547 2.98479 54.2037 5.73882 58.372 9.57212L50.1099 18.2064C46.8224 15.2414 42.7534 13.2938 38.3867 12.5991C34.0199 11.9044 29.5415 12.4874 25.4973 14.2862C21.4531 16.085 18.0168 19.0127 15.6101 22.722C13.2035 26.4312 11.9133 30.7608 11.9133 35.1895C11.9133 39.6183 13.1911 43.9478 15.6101 47.6571C18.0168 51.3663 21.4531 54.294 25.4973 56.0928C29.5415 57.8916 34.0199 58.4747 38.3867 57.78C42.7534 57.0853 46.8348 55.1376 50.1099 52.1727L58.372 60.8069C51.9583 66.712 43.5474 69.9994 34.8263 69.987H34.8387Z" fill="#E03875"/>
<path d="M62.8378 52.582C62.2796 52.582 61.7213 52.4207 61.2499 52.0981C60.7785 51.788 60.4187 51.3414 60.1954 50.8204C59.9846 50.2993 59.9225 49.7287 60.0342 49.1704C60.1458 48.6122 60.4187 48.1036 60.8157 47.7066C61.2127 47.3096 61.7213 47.0367 62.2796 46.925C62.8378 46.8134 63.4085 46.8754 63.9295 47.0863C64.4505 47.2972 64.8971 47.6694 65.2073 48.1408C65.5174 48.6122 65.6911 49.158 65.6911 49.7287C65.6911 50.4854 65.3934 51.2049 64.8599 51.7384C64.3265 52.2718 63.5946 52.5696 62.8502 52.5696L62.8378 52.582Z" fill="#E03875"/>
<path d="M34.6157 42.7318C33.1271 42.7318 31.6632 42.2977 30.4227 41.4789C29.1821 40.6477 28.2021 39.4816 27.6314 38.1046C27.0608 36.7276 26.8995 35.2141 27.1848 33.7502C27.4702 32.2864 28.1897 30.9342 29.2441 29.8797C30.2986 28.8253 31.6384 28.1057 33.1023 27.808C34.5661 27.5103 36.0796 27.6591 37.469 28.2298C38.846 28.8004 40.0245 29.7681 40.8557 31.0086C41.6869 32.2492 42.1211 33.713 42.1211 35.2017C42.1211 37.199 41.3271 39.1094 39.9253 40.5113C38.5235 41.9255 36.613 42.7194 34.6157 42.7318Z" fill="#E03875"/>
<path d="M66.1132 42.8683C65.555 42.8683 64.9967 42.7071 64.5253 42.3845C64.0539 42.0744 63.6941 41.6278 63.4708 41.1068C63.2599 40.5857 63.1979 40.0151 63.3096 39.4568C63.4212 38.8986 63.6941 38.3899 64.0911 37.993C64.4881 37.596 64.9967 37.3231 65.555 37.2114C66.1132 37.0998 66.6839 37.1618 67.2049 37.3727C67.7259 37.5836 68.1725 37.9558 68.4827 38.4272C68.7928 38.8986 68.9665 39.4444 68.9665 40.0151C68.9665 40.7718 68.6688 41.4913 68.1353 42.0248C67.6019 42.5582 66.8699 42.8559 66.1256 42.8559L66.1132 42.8683Z" fill="#E03875"/>
<path d="M57.6279 42.5085C57.0572 42.5085 56.5114 42.3349 56.04 42.0247C55.5686 41.7146 55.2088 41.268 54.9855 40.7345C54.7746 40.2135 54.7126 39.6305 54.8242 39.0846C54.9359 38.5264 55.2088 38.0177 55.6182 37.6208C56.0151 37.2238 56.5362 36.9509 57.082 36.8516C57.6403 36.74 58.2109 36.802 58.732 37.0253C59.253 37.2486 59.6996 37.6208 60.0097 38.0922C60.3199 38.5636 60.4811 39.1218 60.4687 39.6801C60.4687 40.4368 60.1586 41.1439 59.6252 41.6774C59.0917 42.2108 58.3722 42.4961 57.6155 42.4961L57.6279 42.5085Z" fill="#E03875"/>
<path d="M66.1132 33.2541C65.555 33.2541 64.9967 33.0804 64.5253 32.7703C64.0539 32.4601 63.6941 32.0135 63.4708 31.4925C63.2599 30.9715 63.1979 30.4008 63.3096 29.8426C63.4212 29.2843 63.6941 28.7757 64.0911 28.3787C64.4881 27.9817 64.9967 27.7088 65.555 27.5972C66.1132 27.4855 66.6839 27.5475 67.2049 27.7584C67.7259 27.9693 68.1725 28.3415 68.4827 28.8129C68.7928 29.2843 68.9665 29.8302 68.9665 30.4008C68.9665 31.1576 68.6688 31.8771 68.1353 32.4105C67.6019 32.9439 66.8699 33.2417 66.1256 33.2417L66.1132 33.2541Z" fill="#E03875"/>
<path d="M57.6279 33.5766C57.0696 33.5766 56.5114 33.4153 56.04 33.0928C55.5686 32.7826 55.2088 32.336 54.9855 31.815C54.7746 31.294 54.7126 30.7233 54.8242 30.1651C54.9359 29.6068 55.2088 29.0982 55.6058 28.7012C56.0027 28.3042 56.5114 28.0313 57.0696 27.9197C57.6279 27.808 58.1985 27.8701 58.7196 28.0809C59.2406 28.2918 59.6872 28.664 59.9973 29.1354C60.3075 29.6068 60.4811 30.1527 60.4811 30.7233C60.4811 31.4801 60.1834 32.1996 59.65 32.7454C59.1165 33.2789 58.3846 33.5766 57.6279 33.5766Z" fill="#E03875"/>
<path d="M62.999 23.6648C62.4407 23.6648 61.8825 23.5035 61.411 23.1934C60.9396 22.8832 60.5799 22.4366 60.3566 21.9156C60.1457 21.3946 60.0837 20.8239 60.1953 20.2657C60.307 19.7074 60.5799 19.1988 60.9769 18.8018C61.3738 18.4048 61.8825 18.1319 62.4407 18.0203C62.999 17.9086 63.5696 17.9706 64.0906 18.1815C64.6117 18.3924 65.0583 18.7646 65.3684 19.236C65.6785 19.7074 65.8522 20.2533 65.8522 20.8239C65.8522 21.5806 65.5545 22.3002 65.0211 22.8336C64.4876 23.367 63.7681 23.6648 63.0114 23.6772L62.999 23.6648Z" fill="#E03875"/>
</svg>
