<svg width="150" height="33" viewBox="0 0 150 33" fill="none" xmlns="http://www.w3.org/2000/svg">
<g clip-path="url(#clip0_2509_5818)">
<path d="M60.5592 12.6536H65.4846C64.663 7.41686 60.1289 3.76929 54.2284 3.76929C47.2467 3.76929 42.0078 8.90227 42.0078 17.499C42.0078 25.9423 47.0111 31.1791 54.3711 31.1791C60.9765 31.1791 65.7051 26.9304 65.7051 20.0526V16.8482H54.8792V20.6255H61.0284C60.9505 24.4309 58.41 26.8396 54.397 26.8396C49.93 26.8396 46.8684 23.4926 46.8684 17.4471C46.8684 11.4406 49.9819 8.10659 54.2932 8.10659C57.5105 8.10659 59.7116 9.82551 60.5592 12.6536Z" fill="#171321"/>
<path d="M68.9622 30.8136H73.6779V10.8135H68.9622V30.8136ZM71.3406 7.63514C72.839 7.63514 74.0628 6.48703 74.0628 5.08163C74.0628 3.67622 72.839 2.51514 71.3406 2.51514C69.8422 2.51514 68.6055 3.66108 68.6055 5.08163C68.6055 6.50217 69.8206 7.63514 71.332 7.63514H71.3406Z" fill="#171321"/>
<path d="M87.7996 10.8135H83.8515V6.00916H79.1358V10.8135H76.2969V14.4611H79.1358V25.5876C79.1099 29.3519 81.8471 31.2092 85.3888 31.0989C86.3322 31.0802 87.2678 30.9221 88.165 30.6297L87.3693 26.9411C86.9186 27.058 86.4554 27.1197 85.9899 27.1249C84.8028 27.1249 83.8515 26.7076 83.8515 24.8049V14.4502H87.7996V10.8135Z" fill="#171321"/>
<path d="M91.4492 30.8136H108.033V26.7617H96.2838V4.13245H91.4492V30.8136Z" fill="#171321"/>
<path d="M117.066 31.2178C120.206 31.2178 122.08 29.7454 122.941 28.0654H123.096V30.8135H127.637V17.4211C127.637 12.1324 123.326 10.5432 119.507 10.5432C115.3 10.5432 112.069 12.4178 111.027 16.0654L115.432 16.6924C115.899 15.3238 117.228 14.1519 119.54 14.1519C121.73 14.1519 122.928 15.2719 122.928 17.2394V17.3173C122.928 18.6708 121.507 18.7378 117.976 19.114C114.095 19.5313 110.383 20.6903 110.383 25.1984C110.37 29.1335 113.248 31.2178 117.066 31.2178ZM118.616 27.7584C116.649 27.7584 115.241 26.8589 115.241 25.127C115.241 23.3151 116.817 22.5605 118.917 22.26C120.156 22.0913 122.632 21.7778 123.241 21.2848V23.6416C123.254 25.8622 121.455 27.7519 118.616 27.7519V27.7584Z" fill="#171321"/>
<path d="M131.109 30.8136H135.747V27.6611H136.02C136.763 29.1206 138.314 31.166 141.754 31.166C146.469 31.166 150 27.4255 150 20.8352C150 14.1649 146.366 10.5433 141.741 10.5433C138.21 10.5433 136.737 12.6665 136.02 14.113H135.821V4.13245H131.109V30.8136ZM135.734 20.8092C135.734 16.9173 137.401 14.4114 140.437 14.4114C143.576 14.4114 145.194 17.0817 145.194 20.8092C145.194 24.5368 143.553 27.2957 140.437 27.2957C137.427 27.2957 135.734 24.6903 135.734 20.8092Z" fill="#171321"/>
<path d="M33.1177 13.2719L33.0723 13.1508L28.4885 1.19403C28.3957 0.959253 28.2306 0.760092 28.0171 0.625377C27.8578 0.523402 27.6769 0.460165 27.4887 0.440733C27.3006 0.421302 27.1105 0.446216 26.9337 0.513479C26.757 0.580742 26.5984 0.688484 26.4708 0.828068C26.3431 0.967652 26.25 1.1352 26.1988 1.31727L23.1047 10.7897H10.575L7.4809 1.31727C7.42929 1.13547 7.33591 0.968239 7.20822 0.828923C7.08052 0.689606 6.92203 0.582055 6.7454 0.514847C6.56877 0.447638 6.37888 0.422632 6.19087 0.441822C6.00286 0.461013 5.82193 0.523868 5.66252 0.625377C5.44903 0.760092 5.28395 0.959253 5.19117 1.19403L0.609542 13.153L0.561974 13.2719C-0.0976459 14.9958 -0.178909 16.8874 0.330436 18.6615C0.839781 20.4357 1.91212 21.9961 3.38576 23.1076L3.40306 23.1205L3.44198 23.1508L10.415 28.3768L13.8744 30.9908L15.976 32.58C16.2226 32.7663 16.5232 32.8671 16.8323 32.8671C17.1413 32.8671 17.4419 32.7663 17.6885 32.58L19.7901 30.9908L23.2496 28.3768L30.2723 23.1205L30.2917 23.1054C31.7653 21.9944 32.8378 20.4344 33.3475 18.6607C33.8572 16.8871 33.7766 14.9957 33.1177 13.2719Z" fill="black"/>
<path d="M33.1182 13.2718L33.0728 13.1508C30.8394 13.609 28.7351 14.5556 26.9106 15.9227L16.8457 23.5335L23.2544 28.3767L30.2771 23.1205L30.2965 23.1054C31.7693 21.9938 32.8409 20.4336 33.3499 18.6599C33.8588 16.8863 33.7775 14.9952 33.1182 13.2718Z" fill="black"/>
<path d="M10.4141 28.3768L13.8735 30.9909L15.9752 32.5801C16.2217 32.7663 16.5223 32.8671 16.8314 32.8671C17.1404 32.8671 17.441 32.7663 17.6876 32.5801L19.7892 30.9909L23.2487 28.3768L16.84 23.5336L10.4141 28.3768Z" fill="black"/>
<path d="M6.76955 15.9228C4.94567 14.5565 2.84205 13.6106 0.609542 13.1531L0.561974 13.272C-0.0976459 14.9959 -0.178909 16.8875 0.330436 18.6617C0.839781 20.4358 1.91212 21.9962 3.38576 23.1077L3.40306 23.1207L3.44198 23.1509L10.415 28.3769L16.8279 23.5336L6.76955 15.9228Z" fill="black"/>
</g>
<defs>
<clipPath id="clip0_2509_5818">
<rect width="150" height="32.4327" fill="white" transform="translate(0 0.434326)"/>
</clipPath>
</defs>
</svg>
