<svg width="250" height="94" viewBox="0 0 250 94" fill="none" xmlns="http://www.w3.org/2000/svg">
<path d="M107.933 1.37354H111.264V8.52425H118.888V1.37354H122.234V18.8683H118.888V11.519H111.264V18.8683H107.933V1.37354Z" fill="black"/>
<path d="M124.358 15.4764C124.358 12.8484 126.207 11.9774 128.453 11.4579L132.257 10.587V10.2814C132.257 9.01326 131.432 8.20346 130.103 8.20346C128.774 8.20346 128.01 8.92158 127.75 10.1286L124.908 9.80778C125.336 7.40893 127.353 5.86572 130.225 5.86572C133.403 5.86572 135.466 7.86731 135.466 10.7857V15.9042C135.466 16.2251 135.573 16.332 135.787 16.332H136.49V18.8837H134.534C133.312 18.8837 132.762 18.4864 132.762 17.478C132.762 17.1724 132.808 16.821 132.93 16.3779L132.655 16.2709C131.753 18.2267 130.424 19.067 128.56 19.067C125.993 19.067 124.343 17.6461 124.343 15.4611L124.358 15.4764ZM129.431 16.7293C131.081 16.7293 132.257 15.5222 132.257 13.6276V12.6345L129.538 13.2915C128.163 13.6123 127.582 14.086 127.582 15.1403C127.582 16.1945 128.3 16.7446 129.431 16.7446V16.7293Z" fill="black"/>
<path d="M137.682 15.4304L140.738 14.8345C141.058 16.1791 142.143 16.8667 143.564 16.8667C144.985 16.8667 145.795 16.2861 145.795 15.3235C145.795 14.3609 144.848 14.147 143.045 13.8261C140.768 13.4747 137.819 13.0469 137.819 9.89932C137.819 7.53102 139.836 5.88086 143.136 5.88086C146.055 5.88086 148.331 7.1032 148.866 9.57845L145.795 10.0827C145.52 8.82977 144.496 8.18803 143.152 8.18803C141.67 8.18803 140.982 8.81449 140.982 9.65485C140.982 10.6327 141.96 10.8314 143.763 11.1522C146.009 11.5036 148.958 11.9315 148.958 15.079C148.958 17.5542 146.956 19.2044 143.579 19.2044C140.524 19.2044 138.262 17.9515 137.712 15.461L137.682 15.4304Z" fill="black"/>
<path d="M154.153 18.8683H150.898V0.884521H154.153V6.47675C154.153 7.13376 154.031 7.74493 153.847 8.67697L154.153 8.78392C154.932 6.93513 156.109 5.86558 158.278 5.86558C161.059 5.86558 162.526 7.60742 162.526 10.5869V18.8835H159.272V10.6786C159.272 9.22702 158.553 8.4325 157.102 8.4325C155.452 8.4325 154.153 9.6854 154.153 11.8856V18.8835V18.8683Z" fill="black"/>
<path d="M169.203 15.6446C169.203 16.1489 169.371 16.2864 169.753 16.2864H171.174V18.8686H168.225C166.743 18.8686 165.948 18.0435 165.948 16.5156V8.72311H164.146V6.15619H169.188V15.6599L169.203 15.6446ZM165.505 2.7489C165.505 1.64879 166.407 0.747314 167.476 0.747314C168.546 0.747314 169.447 1.64879 169.447 2.7489C169.447 3.84901 168.577 4.71993 167.476 4.71993C166.376 4.71993 165.505 3.84901 165.505 2.7489Z" fill="black"/>
<path d="M172.244 10.1288C172.244 4.87276 175.697 1.0835 180.693 1.0835C184.895 1.0835 187.767 3.51291 188.547 6.81324L185.246 7.60776C184.62 5.31586 183.092 4.00184 180.693 4.00184C177.637 4.00184 175.727 6.52293 175.727 10.1288C175.727 13.7348 177.729 16.2558 180.831 16.2558C183.275 16.2558 184.773 14.9265 185.399 12.4819L188.516 12.8333C187.767 16.7601 184.864 19.1742 180.77 19.1742C175.727 19.1742 172.244 15.3696 172.244 10.1288Z" fill="black"/>
<path d="M189.876 12.4968C189.876 8.6159 192.596 5.85034 196.37 5.85034C200.144 5.85034 202.863 8.63118 202.863 12.4968C202.863 16.3625 200.144 19.1739 196.37 19.1739C192.596 19.1739 189.876 16.3778 189.876 12.4968ZM199.624 12.4968C199.624 10.098 198.356 8.49366 196.37 8.49366C194.383 8.49366 193.115 10.098 193.115 12.4968C193.115 14.8957 194.414 16.5153 196.37 16.5153C198.325 16.5153 199.624 14.911 199.624 12.4968Z" fill="black"/>
<path d="M204.926 6.15625H207.921V6.66047C207.921 7.33276 207.89 7.88281 207.691 8.90652L207.997 8.98292C208.471 7.3022 209.342 6.15625 211.389 6.15625H212.321V9.30379H210.992C209.174 9.30379 208.165 10.4039 208.165 12.4208V18.8686H204.911V6.15625H204.926Z" fill="black"/>
<path d="M213.849 6.15603H217.043V6.73664C217.043 7.31726 216.997 7.76036 216.813 8.78407L217.119 8.86047C217.898 6.82832 219.35 5.86572 221.214 5.86572C224.316 5.86572 226.76 8.41737 226.76 12.5122C226.76 16.6071 224.316 19.1893 221.214 19.1893C219.335 19.1893 217.959 18.2114 217.165 16.164L216.89 16.2709C217.043 17.2641 217.088 17.7377 217.088 18.2878V24.0175H213.834V6.15603H213.849ZM223.552 12.4969C223.552 10.0217 222.207 8.49376 220.297 8.49376C218.387 8.49376 217.043 10.0217 217.043 12.4969C217.043 14.9722 218.387 16.5154 220.297 16.5154C222.207 16.5154 223.552 14.9875 223.552 12.4969Z" fill="black"/>
<path d="M106.329 34.1782H114.84L124.771 69.7179H127.033L136.903 34.1782H144.986L132.793 77.0672H118.522L106.329 34.1782Z" fill="black"/>
<path d="M144.741 68.7404C144.741 62.3078 149.279 60.1687 154.795 58.87L164.115 56.7309V55.9975C164.115 52.8805 162.098 50.9095 158.844 50.9095C155.589 50.9095 153.695 52.6819 153.083 55.6308L146.101 54.8363C147.14 48.9537 152.105 45.1492 159.149 45.1492C166.926 45.1492 172.014 50.0538 172.014 57.2198V69.7794C172.014 70.5739 172.259 70.8184 172.809 70.8184H174.52V77.0676H169.738C166.743 77.0676 165.383 76.0898 165.383 73.6298C165.383 72.8964 165.505 72.0408 165.811 70.9406L165.139 70.6962C162.939 75.4786 159.684 77.5566 155.085 77.5566C148.775 77.5566 144.726 74.0576 144.726 68.7404H144.741ZM157.178 71.7963C161.227 71.7963 164.1 68.8627 164.1 64.2025V61.7578L157.423 63.3468C154.046 64.1413 152.64 65.3026 152.64 67.8848C152.64 70.467 154.413 71.8116 157.178 71.8116V71.7963Z" fill="black"/>
<path d="M199.395 45.8823H207.355V77.0674H199.578V75.845C199.578 74.256 199.7 73.0948 200.067 70.8181L199.395 70.6348C197.5 75.1728 194.551 77.8008 189.219 77.8008C182.419 77.8008 178.859 73.5073 178.859 66.2191V45.8823H186.82V65.5468C186.82 69.5347 188.531 71.4904 192.336 71.4904C196.385 71.4904 199.379 68.4193 199.379 62.9799V45.8823H199.395Z" fill="black"/>
<path d="M223.658 69.29C223.658 70.4512 224.086 70.8179 224.942 70.8179H228.563V77.0672H221.214C217.593 77.0672 215.698 75.0503 215.698 71.3069V39.2662H211.282V32.9558H223.658V69.29Z" fill="black"/>
<path d="M234.446 69.168V52.1927H228.93V45.8823H234.446V37.9829H242.406V45.8823H250V52.1927H242.406V68.1901C242.406 70.0847 243.078 70.757 244.606 70.757H250V77.0674H243.078C237.012 77.0674 234.446 74.6227 234.446 69.168Z" fill="black"/>
<path d="M0 14.9265L40.429 93.6149L81.1484 14.9265H0ZM34.134 46.1727H27.6861V39.7401H34.134V46.1727ZM34.134 36.5162H27.6861V30.0683H34.134V36.5162ZM43.8058 55.8292H37.3579V49.3813H43.8058V55.8292ZM43.8058 46.1727H37.3579V39.7401H43.8058V46.1727ZM43.8058 36.5162H37.3579V30.0683H43.8058V36.5162ZM53.4012 46.1727H46.9533V39.7401H53.4012V46.1727ZM46.9686 36.5162V30.0683H53.4164V36.5162H46.9686Z" fill="#FFCF25"/>
</svg>
