<svg xmlns="http://www.w3.org/2000/svg" viewBox="0 0 841.9 595.3">
    <g fill="#61DAFB">
        <path d="M666.3 296.5c0-23.1-1.3-45.4-3.8-67.1h-163v126.8h92.8c-4 22.2-15.6 41.1-32.9 54.1v45.1h53.1c31.1-28.6 49-71 49-122.9z"/>
        <path d="M503.5 593.3c67.6 0 124.1-22.5 165.3-60.9l-53.1-45.1c-29.6 20.1-67.1 32.1-112.2 32.1-86.2 0-159-58.1-185.1-136.1h-55.2v48.3c41.2 81.5 129.5 137.7 240.3 137.7z"/>
        <path d="M318.2 357.1c-4-22.2-15.6-41.1-32.9-54.1v-45.1h-53.1c-31.1 28.6-49 71-49 122.9 0 23.1 1.3 45.4 3.8 67.1h163v-126.8h-92.8z"/>
        <path d="M318.2 238.2c4-22.2 15.6-41.1 32.9-54.1v-45.1h-53.1c-31.1 28.6-49 71-49 122.9 0 23.1 1.3 45.4 3.8 67.1h163v-126.8h-92.8z"/>
        <path d="M503.5 1.7c-67.6 0-124.1 22.5-165.3 60.9l53.1 45.1c29.6-20.1 67.1-32.1 112.2-32.1 86.2 0 159 58.1 185.1 136.1h55.2v-48.3c-41.2-81.5-129.5-137.7-240.3-137.7z"/>
        <path d="M666.3 238.2c-4-22.2-15.6-41.1-32.9-54.1v-45.1h-53.1c-31.1 28.6-49 71-49 122.9 0 23.1 1.3 45.4 3.8 67.1h163v-126.8h-92.8z"/>
    </g>
    <circle cx="420.9" cy="296.5" r="45.7" fill="#61DAFB"/>
</svg>