<svg width="150" height="36" viewBox="0 0 150 36" fill="none" xmlns="http://www.w3.org/2000/svg">
<g clip-path="url(#clip0_2509_5831)">
<path d="M31.126 20.3503C34.1986 20.3503 38.6294 19.7158 38.6294 16.0643C38.6294 15.786 38.6182 15.4965 38.5514 15.2294L36.7257 7.29185C36.3027 5.54403 35.9353 4.75362 32.8738 3.21733C30.4915 2.00388 25.3148 -0.0111084 23.7785 -0.0111084C22.3536 -0.0111084 21.9417 1.82576 20.2384 1.82576C18.5351 1.82576 17.3885 0.456459 15.8522 0.456459C14.3159 0.456459 13.4253 1.45839 12.6794 3.51791C12.6794 3.51791 10.6199 9.3291 10.3527 10.1752C10.3082 10.331 10.297 10.4869 10.297 10.6539C10.297 12.9138 19.1919 20.3281 31.126 20.3281M39.0969 17.5338C39.52 19.5377 39.52 19.7492 39.52 20.0164C39.52 23.4452 35.657 25.3488 30.5917 25.3488C19.1251 25.3488 9.08358 18.6359 9.08358 14.194C9.08358 13.5706 9.20603 12.9694 9.45095 12.4017C5.33191 12.6021 -0.0117188 13.348 -0.0117188 18.057C-0.0117188 25.7719 18.2791 35.2902 32.7514 35.2902C43.8505 35.2902 46.6559 30.2694 46.6559 26.3062C46.6559 23.1891 43.9619 19.649 39.0969 17.5338Z" fill="#979797"/>
<path d="M39.1091 17.5449C39.5321 19.5488 39.5321 19.7603 39.5321 20.0275C39.5321 23.4563 35.6691 25.3599 30.6038 25.3599C19.1373 25.3599 9.0957 18.647 9.0957 14.2051C9.0957 13.5817 9.21816 12.9805 9.46308 12.4128L10.3648 10.1863C10.3203 10.3421 10.3092 10.498 10.3092 10.6538C10.3092 12.9138 19.2041 20.328 31.1382 20.328C34.2107 20.328 38.6415 19.6935 38.6415 16.042C38.6415 15.7637 38.6304 15.4742 38.5636 15.2071L39.1091 17.5338V17.5449Z" fill="black"/>
<path d="M142.018 22.6325C142.018 25.5492 143.765 26.963 146.971 26.963C147.951 26.9408 148.931 26.796 149.888 26.5511V23.1668C149.276 23.3561 148.641 23.4563 148.007 23.4563C146.693 23.4563 146.203 23.0444 146.203 21.8087V16.632H150.022V13.1475H146.203V8.73904L142.04 9.64078V13.1475H139.268V16.632H142.029V22.6436L142.018 22.6325ZM129.026 22.7104C129.026 21.8087 129.928 21.3745 131.297 21.3745C132.132 21.3745 132.967 21.4858 133.768 21.6862V23.434C132.967 23.8682 132.076 24.0908 131.163 24.0797C129.827 24.0797 129.026 23.5676 129.026 22.7104ZM130.306 27.0187C131.776 27.0187 132.967 26.707 134.069 25.9611V26.7849H138.188V18.0459C138.188 14.7172 135.95 12.9026 132.21 12.9026C130.117 12.9026 128.057 13.3924 125.831 14.3944L127.323 17.467C128.926 16.799 130.262 16.3871 131.453 16.3871C133.167 16.3871 134.058 17.0551 134.058 18.4244V19.0923C133.045 18.8363 132.009 18.7027 130.963 18.7027C127.456 18.7027 125.341 20.1722 125.341 22.7995C125.341 25.193 127.245 27.0298 130.295 27.0298M107.629 26.796H112.06V19.7269H119.485V26.796H123.927V8.72791H119.496V15.6635H112.071V8.72791H107.64L107.618 26.7849L107.629 26.796ZM90.7521 19.9607C90.7521 18.0013 92.2995 16.4984 94.3368 16.4984C95.3944 16.4762 96.4297 16.8547 97.2201 17.556V22.3208C96.4408 23.0555 95.4055 23.4451 94.3368 23.4117C92.3218 23.4117 90.7521 21.92 90.7521 19.9607ZM97.2758 26.796H101.406V7.82617L97.2424 8.72791V13.86C96.1848 13.2589 94.9825 12.9471 93.7579 12.9583C89.7836 12.9583 86.6665 16.0309 86.6665 19.9495C86.6219 23.7791 89.6834 26.9185 93.5018 26.963C93.5464 26.963 93.5798 26.963 93.6243 26.963C94.9379 26.963 96.2182 26.5511 97.2869 25.783V26.796H97.2758ZM78.3393 16.3092C79.653 16.3092 80.7662 17.1552 81.2004 18.4689H75.5116C75.9235 17.1107 76.9589 16.3092 78.3393 16.3092ZM71.3147 19.9829C71.3147 23.9572 74.5654 27.0521 78.7401 27.0521C81.0334 27.0521 82.7144 26.4287 84.4399 24.9926L81.6791 22.5434C81.0334 23.2114 80.076 23.5787 78.9516 23.5787C77.4932 23.6233 76.1573 22.7549 75.6007 21.419H85.3194V20.3837C85.3194 16.0531 82.4027 12.936 78.4395 12.936C74.5765 12.8803 71.3926 15.9641 71.3258 19.8382C71.3258 19.8939 71.3258 19.9495 71.3258 20.0052M64.1342 12.5575C65.6037 12.5575 66.4275 13.4815 66.4275 14.5948C66.4275 15.708 65.6037 16.632 64.1342 16.632H59.7479V12.5575H64.1342ZM55.3061 26.8183H59.7368V20.239H63.11L66.5165 26.8183H71.4817L67.5073 19.5933C69.5669 18.7583 70.9139 16.7433 70.9139 14.5168C70.9139 11.2661 68.3645 8.77244 64.5349 8.77244H55.2949V26.8183H55.3061Z" fill="#1D1D1B"/>
</g>
<defs>
<clipPath id="clip0_2509_5831">
<rect width="150" height="35.3013" fill="white"/>
</clipPath>
</defs>
</svg>
