<svg width="250" height="51" viewBox="0 0 250 51" fill="none" xmlns="http://www.w3.org/2000/svg">
<g clip-path="url(#clip0_2376_24386)">
<path d="M114.231 41.3044C115.302 41.3044 116.373 41.1854 117.444 40.8284C118.479 40.5428 119.443 40.055 120.3 39.4005C122.025 38.0202 122.989 35.9022 122.917 33.689C122.989 31.6661 122.108 29.7266 120.538 28.4534C118.289 27.2873 115.933 26.3353 113.517 25.5976C112.922 25.3953 112.363 25.1097 111.851 24.7646L110.661 23.5747C110.423 23.0988 110.304 22.5038 110.304 21.7899C110.304 21.0759 110.542 20.6 110.78 20.005C111.137 19.529 111.494 19.0531 111.97 18.8151C112.434 18.4462 112.958 18.1606 113.517 17.9822C115.076 17.5776 116.718 17.7442 118.158 18.4581C118.979 18.8151 119.681 19.3863 120.181 20.124L122.56 17.7442C121.739 16.816 120.728 16.0902 119.586 15.6023C118.396 15.0074 116.849 14.7694 115.421 14.7694C114.35 14.7694 113.398 14.8884 112.327 15.2454C111.352 15.4715 110.423 15.876 109.59 16.4353C108.758 17.1492 108.044 17.8632 107.568 18.8151C106.973 19.648 106.735 20.719 106.735 22.0279C106.628 23.8722 107.377 25.669 108.758 26.9065C109.412 27.4062 110.126 27.8108 110.899 28.0964C111.732 28.5724 112.565 28.8103 113.279 29.0483C114.719 29.5838 116.147 30.1311 117.563 30.7142C118.039 31.0712 118.515 31.5471 118.753 32.0231C119.859 33.7961 119.336 36.1402 117.563 37.2587C117.206 37.6157 116.611 37.8537 116.016 37.9726C114.35 38.4843 112.553 38.3177 111.018 37.4967C110.066 36.9017 109.233 36.3068 108.639 35.3548L105.902 37.7347C106.854 38.9246 108.044 39.7575 109.471 40.3525C111.018 40.9474 112.565 41.3044 114.231 41.3044ZM132.437 40.9474C133.412 40.9474 134.376 40.7808 135.293 40.4715V37.7347L134.222 38.0916H133.27C132.437 38.0916 131.842 37.9726 131.366 37.4967C131.009 37.0207 130.89 36.3068 130.89 35.3548V26.5495H135.293V23.8127H130.89V18.9341H127.558V23.6937H124.345V26.5495H127.558V35.7118C127.558 37.3777 127.915 38.8056 128.748 39.6385C129.581 40.4715 130.89 40.9474 132.437 40.9474ZM143.146 41.0664C144.455 41.0664 145.526 40.8284 146.597 40.3525C147.549 39.8765 148.263 39.1625 148.976 38.2106C148.976 39.0436 149.095 39.8765 149.333 40.5904H152.308L152.07 39.1626V29.8813C152.094 29.0245 151.927 28.1678 151.594 27.3824C151.047 25.7285 149.774 24.4196 148.144 23.8127C145.859 23.075 143.384 23.1226 141.123 23.9317C140.028 24.3958 139.029 25.0383 138.148 25.8356L139.933 27.9774C141.206 26.7399 142.92 26.0616 144.693 26.0735C145.883 26.0735 146.954 26.3115 147.668 26.9065C148.501 27.5014 148.857 28.4534 148.857 29.7623V30.2382L144.574 30.3572C143.265 30.4762 141.956 30.7142 140.885 31.0712C139.695 31.5471 138.862 32.1421 138.148 32.856C137.434 33.57 137.077 34.6409 137.077 35.8308C137.077 36.9017 137.315 37.7347 137.672 38.3296C138.029 39.0436 138.624 39.5195 139.219 39.9955L141.123 40.8284L143.265 41.0664H143.146ZM143.979 38.4486L142.789 38.3296C142.313 38.3296 141.956 38.0916 141.599 37.8536L140.766 37.0207C140.588 36.6518 140.504 36.2473 140.528 35.8308C140.528 35.1169 140.766 34.6409 141.242 34.1649C141.718 33.689 142.313 33.332 143.027 33.094C144.681 32.8084 146.347 32.6418 148.025 32.618H148.857V33.451C148.857 34.7361 148.441 35.9855 147.668 37.0207C146.716 37.9726 145.526 38.4486 143.979 38.4486ZM165.159 41.1854C166.587 41.1854 167.777 40.9474 168.729 40.4715C169.919 39.9955 170.752 39.2815 171.466 38.4486L169.205 36.4258C168.765 37.0207 168.194 37.5086 167.539 37.8536C166.778 38.1511 165.968 38.3058 165.159 38.3296C163.6 38.3177 162.125 37.6157 161.114 36.4258C160.602 35.8665 160.197 35.224 159.924 34.5219C159.222 32.273 159.662 29.8337 161.114 27.9774C161.59 27.3824 162.184 26.9065 162.779 26.6685C164.279 25.907 166.04 25.907 167.539 26.6685C168.134 27.0255 168.729 27.5014 169.086 28.0964L171.466 26.0735C170.752 25.1692 169.812 24.4672 168.729 24.0507C166.444 23.1107 163.874 23.1107 161.59 24.0507C159.46 24.8598 157.746 26.49 156.83 28.5724C156.366 29.7028 156.128 30.9165 156.116 32.1421C156.116 33.57 156.354 34.7599 156.83 35.8308C157.675 38.0202 159.4 39.7456 161.59 40.5904C162.779 40.9474 163.969 41.1854 165.159 41.1854ZM177.772 40.7094V31.9041H177.891L185.626 40.5904H190.385L181.699 31.3091L189.552 23.6937H185.15L178.01 30.9522V13.6985H174.56V40.7094H177.891H177.772ZM196.454 40.7094V29.4053H200.143L206.568 40.7094H210.852L203.831 29.0483C205.509 28.8698 207.068 28.1202 208.234 26.9065C209.448 25.7166 210.09 24.0745 210.019 22.3848C210.019 21.1949 209.781 20.005 209.305 19.1721C208.817 18.3034 208.127 17.5657 207.282 17.0302C206.449 16.4353 205.497 16.0783 204.426 15.8403C203.296 15.5904 202.13 15.4715 200.976 15.4834H192.884V40.5904H196.454V40.7094ZM200.5 26.4305H196.335V18.4581H200.619L202.76 18.5771C203.474 18.6961 204.069 18.9341 204.545 19.2911C205.14 19.529 205.497 20.005 205.735 20.481C206.092 21.0759 206.33 21.6709 206.33 22.3848C206.354 23.0512 206.187 23.7056 205.854 24.2887C205.521 24.7884 205.069 25.193 204.545 25.4786C203.95 25.8475 203.308 26.133 202.641 26.3115L200.262 26.4305H200.5ZM221.68 41.1854C222.989 41.1854 224.179 40.9474 225.25 40.4715C228.689 39.1626 230.937 35.8189 230.842 32.1421C230.842 30.9522 230.604 29.7623 230.128 28.5724C229.26 26.4305 227.534 24.7527 225.369 23.9317C224.179 23.5747 222.989 23.3368 221.799 23.3368C218.205 23.194 214.897 25.2763 213.47 28.5724C212.875 29.7623 212.637 30.9522 212.637 32.1421C212.637 34.5457 213.577 36.8541 215.254 38.5676C215.968 39.4005 217.039 39.9955 218.11 40.4715C219.3 40.9474 220.49 41.1854 221.68 41.1854ZM221.68 38.3296C220.847 38.3296 220.014 38.0916 219.3 37.8536C218.586 37.4967 218.11 37.0207 217.515 36.4258C217.039 35.8665 216.682 35.2121 216.444 34.5219C215.742 32.273 216.183 29.8337 217.634 27.9774C218.634 26.7756 220.109 26.0735 221.68 26.0735C222.632 26.0735 223.465 26.3115 224.06 26.5495C225.404 27.2516 226.428 28.4415 226.916 29.8813C227.653 32.1064 227.249 34.5576 225.845 36.4258C225.369 37.0207 224.774 37.4967 224.06 37.8536C223.465 38.0916 222.632 38.3296 221.68 38.3296ZM236.435 40.7094L241.194 34.0459L245.954 40.7094H250L243.217 31.7851L249.286 23.8127H245.478L241.194 29.5243L237.149 23.8127H232.984L239.172 31.7851L232.389 40.7094H236.435ZM87.5771 48.5628C87.9341 48.4438 88.1721 48.0869 88.0531 47.7299L77.3439 17.9822C77.3439 17.9822 77.2249 17.7442 76.9869 17.7442C76.9869 17.6252 76.749 17.6252 76.511 17.7442L49.1431 31.5471C48.9051 31.7851 48.7861 32.1421 48.9051 32.3801L55.5686 50.1097H84.1264L87.6961 48.5628H87.5771Z" fill="black"/>
<path d="M44.2649 30.833C44.1459 30.476 44.2649 30.1191 44.6219 30.0001L70.7999 16.7921L68.0631 9.17665L67.5872 8.70068H66.9922L32.0089 26.5493C31.6519 26.6683 31.4139 27.1443 31.5329 27.6202L39.9813 50.1095H51.4044L44.2649 30.833Z" fill="black"/>
<path d="M26.773 25.9545C26.654 25.5975 26.773 25.1216 27.2489 25.0026L59.3765 8.46282L56.6397 0.728405C56.6397 0.490423 56.4017 0.371432 56.1637 0.252441H55.4498L14.9929 20.8379C14.3979 21.0759 14.1599 21.5518 14.3979 22.0278L24.8691 50.1097H35.6973L26.654 25.9545H26.773ZM10.7092 23.2177L20.9424 50.1097H4.28367C4.28367 50.1097 4.04569 50.1097 4.04569 49.8717L0 38.6865V38.4485L10.2332 23.2177C10.3403 23.0511 10.5664 23.0035 10.733 23.1225C10.7687 23.1463 10.8044 23.182 10.8282 23.2177H10.7092Z" fill="black"/>
</g>
<defs>
<clipPath id="clip0_2376_24386">
<rect width="250" height="49.8572" fill="white" transform="translate(0 0.252441)"/>
</clipPath>
</defs>
</svg>
