<svg width="150" height="28" viewBox="0 0 150 28" fill="none" xmlns="http://www.w3.org/2000/svg">
<g clip-path="url(#clip0_2509_5813)">
<path d="M138.963 22.2328C136.621 22.2328 134.715 20.3277 134.715 17.9856V5.39537C134.715 3.05328 136.621 1.14681 138.963 1.14681H148.627C149.384 1.14681 150 1.76281 150 2.51927C150 3.27573 149.384 3.89102 148.627 3.89102H138.963C138.135 3.89102 137.461 4.56619 137.461 5.39537V10.3505H146.939C147.656 10.3505 148.239 10.9344 148.239 11.6517C148.239 12.3689 147.656 12.9521 146.939 12.9521H137.461V17.9856C137.461 18.8148 138.135 19.4879 138.963 19.4879H148.627C149.384 19.4879 150 20.1046 150 20.861C150 21.6182 149.384 22.2328 148.627 22.2328H138.963ZM95.6275 22.5101C92.8405 22.5101 90.6937 21.8029 89.2464 20.4069C87.8005 19.0137 87.0676 16.9176 87.0676 14.1763V2.46366C87.0676 1.586 87.7806 0.872314 88.6575 0.872314C89.5352 0.872314 90.2488 1.586 90.2488 2.46366V13.7563C90.2488 15.8075 90.6909 17.3454 91.5628 18.325C92.4391 19.3118 93.8058 19.8116 95.6275 19.8116C97.4477 19.8116 98.8158 19.3118 99.6921 18.325C100.563 17.3447 101.005 15.8075 101.005 13.7563V2.46366C101.005 1.586 101.719 0.872314 102.597 0.872314C103.474 0.872314 104.188 1.586 104.188 2.46366V14.1763C104.188 16.9162 103.454 19.0123 102.007 20.4069C100.56 21.8029 98.4144 22.5101 95.6275 22.5101ZM119.53 22.5101C115.942 22.5101 113.208 21.4906 111.407 19.48C110.886 18.8982 110.918 18.0006 111.482 17.4374L111.488 17.431L111.494 17.4253C111.78 17.1415 112.159 16.9861 112.563 16.9861C112.99 16.9861 113.392 17.1679 113.668 17.4873C114.17 18.0669 114.744 18.5389 115.376 18.889C116.479 19.5014 117.866 19.8116 119.499 19.8116C121.048 19.8116 122.285 19.5385 123.174 18.9988C124.089 18.4455 124.554 17.6477 124.554 16.6267C124.554 15.8011 124.133 15.1274 123.303 14.6269C122.496 14.1413 121.135 13.7242 119.14 13.3499C117.202 12.9885 115.64 12.5364 114.496 12.006C113.365 11.4827 112.535 10.8289 112.026 10.0589C111.518 9.29459 111.261 8.34563 111.261 7.23839C111.261 6.06984 111.589 4.99041 112.235 4.03147C112.883 3.07039 113.834 2.2954 115.061 1.7293C116.294 1.16035 117.754 0.872314 119.401 0.872314C121.326 0.872314 122.991 1.22452 124.35 1.92038C125.263 2.38666 126.089 3.02975 126.808 3.83113C127.357 4.44499 127.306 5.39537 126.692 5.94935C126.415 6.19817 126.058 6.33506 125.688 6.33506C125.218 6.33506 124.783 6.12117 124.496 5.74972C124.088 5.21927 123.629 4.78721 123.129 4.46638C122.205 3.87248 120.963 3.5716 119.434 3.5716C117.925 3.5716 116.734 3.87961 115.894 4.48705C115.039 5.1052 114.604 5.91227 114.604 6.88405C114.604 7.79593 115.029 8.52815 115.869 9.06002C116.683 9.57835 118.094 10.0133 120.181 10.3883C122.075 10.7284 123.598 11.1647 124.709 11.683C125.807 12.1942 126.617 12.8387 127.116 13.5981C127.613 14.3545 127.865 15.3085 127.865 16.4335C127.865 17.6427 127.517 18.72 126.831 19.6355C126.14 20.5559 125.157 21.2717 123.913 21.7629C122.657 22.2585 121.183 22.5101 119.53 22.5101ZM71.8828 22.5158C68.293 22.5158 65.5602 21.4956 63.7586 19.485C63.2374 18.9039 63.2709 18.0063 63.8341 17.4424L63.8427 17.4338C64.1293 17.1486 64.51 16.9918 64.915 16.9918C65.3428 16.9918 65.7456 17.1743 66.0194 17.493C66.5199 18.0719 67.0938 18.5439 67.7269 18.8947C68.8306 19.5078 70.218 19.818 71.8507 19.818C73.3993 19.818 74.6356 19.5449 75.5261 19.0052C76.4415 18.4519 76.9057 17.6541 76.9057 16.6339C76.9057 15.8068 76.4843 15.1345 75.6551 14.634C74.8473 14.147 73.4849 13.7292 71.4907 13.3549C69.5536 12.9942 67.9915 12.5414 66.8471 12.0124C65.7171 11.4884 64.8851 10.8332 64.3774 10.0653C63.8698 9.30029 63.6124 8.35133 63.6124 7.24481C63.6124 6.07554 63.9404 4.99754 64.5863 4.0386C65.2344 3.07609 66.1855 2.30181 67.4125 1.73572C68.6445 1.16748 70.1047 0.878732 71.7531 0.878732C73.6781 0.878732 75.3436 1.23165 76.7011 1.92679C77.6151 2.39378 78.4414 3.03688 79.1586 3.83754C79.7091 4.45141 79.6563 5.40036 79.0439 5.95505C78.7672 6.20388 78.41 6.34077 78.0386 6.34077C77.5687 6.34077 77.1345 6.12759 76.8479 5.75614C76.4422 5.2264 75.981 4.79363 75.4812 4.47208C74.5564 3.87747 73.3138 3.5766 71.7859 3.5766C70.2765 3.5766 69.0859 3.88531 68.2438 4.49276C67.3897 5.11304 66.9562 5.91941 66.9562 6.88975C66.9562 7.80164 67.3812 8.53385 68.2196 9.06644C69.0352 9.58476 70.4455 10.019 72.5338 10.3947C74.4253 10.7334 75.9489 11.169 77.0618 11.6887C78.1598 12.2021 78.9683 12.8466 79.4674 13.603C79.965 14.3588 80.2174 15.3127 80.2174 16.4399C80.2174 17.6498 79.8695 18.7264 79.1822 19.6404C78.4906 20.5616 77.5088 21.2781 76.2633 21.7694C75.0078 22.2649 73.5341 22.5158 71.8828 22.5158Z" fill="black"/>
<path d="M51.006 8.31711C50.666 7.96633 50.1063 7.96633 49.7669 8.31711C49.3848 8.69783 49.4304 9.35518 49.9038 9.6696C50.1933 9.86139 50.5797 9.86139 50.8684 9.6696C51.3404 9.35518 51.3868 8.69783 51.006 8.31711ZM49.8731 5.33762C47.5318 4.78935 45.4285 6.89331 45.9782 9.23327C46.257 10.4246 47.2038 11.3707 48.3966 11.6502C50.738 12.2006 52.8426 10.0952 52.2915 7.75386C52.0106 6.56178 51.0645 5.61639 49.8731 5.33762ZM34.4153 18.5182C32.8896 17.9543 32.2999 18.0676 30.3493 18.0947C28.9975 18.1118 28.9483 18.0655 27.4054 18.0655C26.9285 18.0655 26.7531 20.3506 28.4777 20.8254C29.2328 21.0329 30.0484 21.164 30.6166 21.7444C30.8683 22.0011 31.0095 22.3889 30.4284 22.3889H26.1463C25.397 22.3889 24.6897 22.406 24.1172 21.9212C23.2524 21.1904 22.8489 20.1851 22.4161 19.1877C21.9669 18.1503 21.4828 17.1287 20.9139 16.1512C19.7831 14.2076 18.288 12.4495 16.2824 11.375C13.7785 10.0318 9.52851 9.36588 6.1633 11.9504C2.61701 14.6732 3.37632 19.7738 6.47844 22.2691C7.70331 23.2552 9.30036 23.6673 10.8703 23.5746C13.9382 23.3971 16.2004 21.1362 15.6386 18.3535C15.4511 17.4224 14.9078 16.5405 14.0894 16.0599C13.5076 15.7198 12.8174 15.5993 12.1437 15.5979C11.4193 15.5958 10.6486 15.7448 10.1274 16.2489C9.5114 16.8456 9.41158 17.9001 9.90424 18.6024C10.1766 18.9916 10.6201 19.3203 10.5452 19.8272C10.4939 20.1702 10.2108 20.4254 9.87287 20.501C9.2975 20.6293 8.77062 20.3014 8.38206 19.9007C7.38533 18.874 7.07305 17.2399 7.62203 15.9173C8.33928 14.1855 10.3342 13.233 12.2071 13.295C14.6219 13.3763 16.8984 14.9691 17.888 17.1729C18.8783 19.3781 18.5818 22.0838 17.2171 24.0787C14.1849 28.5105 6.6966 27.9871 3.21733 24.2498C1.03494 21.9048 -0.150727 19.6297 0.0153944 15.3926C0.132321 12.3988 1.85984 9.4493 4.06219 7.37456C7.65055 3.99296 12.3761 1.68081 17.1851 0.684086C20.1054 0.0802034 23.1205 -0.0609634 26.085 0.234918C28.6995 0.494437 31.2982 0.973551 33.8107 1.7514C35.0584 2.13996 36.2854 2.60197 37.4718 3.14667C38.5184 3.62721 39.8902 4.15124 40.7051 4.98113C40.7051 3.4782 40.6466 1.82697 40.6466 0.676957C40.6466 0.238483 41.1079 -0.058112 41.5029 0.129398C43.2033 0.918652 47.2316 2.82156 49.9173 4.05C53.5178 5.69481 53.7724 9.57549 53.8978 13.0163C53.9007 13.0933 53.9042 13.1724 53.87 13.2408C53.7567 13.4768 53.1499 13.4127 52.9275 13.4155C52.4969 13.4198 51.8473 13.417 51.4167 13.4369C50.5576 13.474 49.7206 13.4583 48.8607 13.4155C47.2715 13.3385 45.7351 12.6298 44.7063 11.7693C44.6036 11.6823 44.2714 11.5882 44.1152 11.7507C43.9527 11.9183 44.0083 12.1807 44.096 12.2705C44.6863 12.8658 45.3258 13.2508 46.0702 13.6351C47.0156 14.1207 48.0465 14.244 49.0917 14.3046C50.2111 14.3709 51.3383 14.3538 52.4555 14.2397C53.3881 14.1442 53.629 14.08 52.7086 14.7637C51.9001 15.3648 50.9626 15.7968 50.0115 16.1162C48.6468 16.5811 47.2066 16.81 45.7686 16.8499C44.8966 16.8734 44.0247 16.8285 43.1598 16.7158C42.7121 16.6602 42.2679 16.579 41.8188 16.5333C41.4544 16.4963 41.0766 16.4285 40.7137 16.507C40.3836 16.579 40.0791 16.7572 39.8716 17.026C39.5872 17.3974 39.4888 18.417 39.6535 18.859C39.9707 19.7153 40.6687 20.2129 41.4059 20.6521C42.2045 21.127 43.2547 21.2895 43.4593 22.1971C43.5014 22.3868 41.8038 22.3918 41.6113 22.3889H39.3519C39.3519 22.3889 38.1242 22.4182 37.6458 22.2442C37.6308 22.2399 37.618 22.2328 37.6023 22.2249C37.3427 22.0852 37.2301 21.7373 37.1417 21.4735C37.0155 21.102 36.7945 20.7306 36.5257 20.3463C36.0152 19.6176 35.2309 18.8205 34.4153 18.5182ZM51.5244 8.49249C51.5244 9.81719 50.4521 10.8895 49.1281 10.8895C47.8048 10.8895 46.7325 9.81719 46.7325 8.49249C46.7325 7.16994 47.8048 6.09764 49.1281 6.09764C50.4521 6.09764 51.5244 7.16994 51.5244 8.49249Z" fill="black"/>
</g>
<defs>
<clipPath id="clip0_2509_5813">
<rect width="150" height="27.1569" fill="white" transform="translate(0 0.0721436)"/>
</clipPath>
</defs>
</svg>
