<?xml version="1.0" encoding="UTF-8"?>
<svg id="Layer_1" xmlns="http://www.w3.org/2000/svg" version="1.1" viewBox="0 0 80 80">
  <!-- Generator: Adobe Illustrator 29.0.0, SVG Export Plug-In . SVG Version: 2.1.0 Build 186)  -->
  <defs>
    <style>
      .st0 {
        fill: #1c2e5d;
      }
    </style>
  </defs>
  <path class="st0" d="M76.4,13.1h-16.4c-.6,0-1.2.5-1.2,1.2s.5,1.2,1.2,1.2h16.4c.7,0,1.3.6,1.3,1.3v45.1c0,.7-.6,1.3-1.3,1.3H3.6c-.7,0-1.3-.6-1.3-1.3V16.7c0-.7.6-1.3,1.3-1.3h25.7v2.3H5.9c-.6,0-1.2.5-1.2,1.2v31c0,.6.5,1.2,1.2,1.2s1.2-.5,1.2-1.2v-29.8h22.3v6.3l-5,2.4c-.4.2-.7.6-.7,1.1v19.1c0,.5.3.9.7,1.1l15.2,7.2c.3.2.7.1,1,0l8.5-4.1c.6-.3.8-1,.6-1.6-.3-.6-1-.8-1.6-.6l-6.8,3.3v-16.5l12.8-6.1v16.5l-1.7.8c-.6.3-.8,1-.6,1.6.3.6,1,.8,1.6.6l2.4-1.1c.4-.2.7-.6.7-1.1v-19.1c0-.4-.3-.9-.7-1.1l-5-2.4v-6.3h22.3v38.3H7v-3.5c0-.6-.5-1.2-1.2-1.2s-1.2.5-1.2,1.2v4.7c0,.6.5,1.2,1.2,1.2h68.3c.6,0,1.2-.5,1.2-1.2V19c0-.6-.5-1.2-1.2-1.2h-23.5v-2.3h4.4c.6,0,1.2-.5,1.2-1.2s-.5-1.2-1.2-1.2h-4.4v-2.3h10.5c.6,0,1.2-.5,1.2-1.2v-2.8c1.4-.5,2.3-1.8,2.3-3.3S63.1,0,61.2,0s-3.5,1.6-3.5,3.5,1,2.8,2.3,3.3v1.6h-10.5c-.6,0-1.2.5-1.2,1.2v3.5h-7.1v-6.3c1.4-.5,2.3-1.8,2.3-3.3S41.9,0,40,0s-3.5,1.6-3.5,3.5,1,2.8,2.3,3.3v6.3h-7.1v-3.5c0-.6-.5-1.2-1.2-1.2h-10.5v-1.6c1.4-.5,2.3-1.8,2.3-3.3S20.8,0,18.8,0s-3.5,1.6-3.5,3.5,1,2.8,2.3,3.3v2.8c0,.6.5,1.2,1.2,1.2h10.5v2.3H3.6c-2,0-3.6,1.6-3.6,3.6v45.1c0,2,1.6,3.6,3.6,3.6h25.4c-.5,4.3-3.3,6.8-4.2,7.5h-5c-1.9,0-3.5,1.6-3.5,3.5s1.6,3.5,3.5,3.5h40.3c1.9,0,3.5-1.6,3.5-3.5s-1.6-3.5-3.5-3.5h-5c-.9-.7-3.7-3.2-4.2-7.5h25.4c2,0,3.6-1.6,3.6-3.6V16.7c0-2-1.6-3.6-3.6-3.6ZM61.2,2.3c.6,0,1.2.5,1.2,1.2s-.5,1.2-1.2,1.2-1.2-.5-1.2-1.2.5-1.2,1.2-1.2ZM40,2.3c.6,0,1.2.5,1.2,1.2s-.5,1.2-1.2,1.2-1.2-.5-1.2-1.2.5-1.2,1.2-1.2ZM18.8,2.3c.6,0,1.2.5,1.2,1.2s-.5,1.2-1.2,1.2-1.2-.5-1.2-1.2.5-1.2,1.2-1.2ZM31.7,20.2h7.1v1.8l-7.1,3.4v-5.2ZM52.4,29.9l-12.4,5.9-12.4-5.9,12.4-5.9,12.4,5.9ZM26,31.8l12.8,6.1v16.5l-12.8-6.1v-16.5ZM48.3,25.3l-7.1-3.4v-1.8h7.1v5.2ZM48.3,15.5v2.3h-7.1v-2.3h7.1ZM38.8,15.5v2.3h-7.1v-2.3h7.1ZM61.3,76.5c0,.6-.5,1.2-1.2,1.2H19.8c-.6,0-1.2-.5-1.2-1.2s.5-1.2,1.2-1.2h40.3c.6,0,1.2.5,1.2,1.2ZM51.8,73h-23.6c1.4-1.6,2.9-4.1,3.2-7.5h17.3c.3,3.4,1.8,5.9,3.2,7.5Z"/>
</svg>