<?xml version="1.0" encoding="UTF-8"?>
<svg id="Layer_1" xmlns="http://www.w3.org/2000/svg" version="1.1" viewBox="0 0 98 80">
  <!-- Generator: Adobe Illustrator 29.0.0, SVG Export Plug-In . SVG Version: 2.1.0 Build 186)  -->
  <defs>
    <style>
      .st0 {
        fill: #1c2e5d;
      }
    </style>
  </defs>
  <path class="st0" d="M96.8,25.5l-30.9-11.8c-.7-.3-1.6,0-1.9.8-.3.7,0,1.6.8,1.9l27.4,10.4-18.9,7.2-23.8-10.8c-.7-.3-1.6,0-1.9.7-.3.7,0,1.6.7,1.9l21.2,9.6-20.6,7.8L5.5,26.9,48.9,10.3l10.7,4.1c.7.3,1.6,0,1.9-.8.3-.7,0-1.6-.8-1.9l-11.2-4.3c-.3-.1-.7-.1-1,0L.9,25.5c-.6.2-.9.8-.9,1.4v6.6c0,.6.4,1.1.9,1.4l14.8,5.6v5c0,.8.6,1.5,1.5,1.5s1.5-.7,1.5-1.5v-3.9l29.7,11.3c.2,0,.3,0,.5,0s.4,0,.5,0l22.4-8.5v23c-7,3.7-14.9,5.7-22.9,5.7s-21.6-3.7-30.2-10.4v-11.3c0-.8-.6-1.5-1.5-1.5s-1.5.7-1.5,1.5v12c0,.4.2.9.5,1.1,9.2,7.4,20.8,11.4,32.6,11.4s15.8-1.9,22.9-5.3v5.9c-2.3.6-4.1,2.8-4.1,5.3s2.5,5.5,5.5,5.5,5.5-2.5,5.5-5.5-1.7-4.7-4.1-5.3v-7.4c2.4-1.3,4.6-2.9,6.8-4.6.3-.3.5-.7.5-1.1v-22.9l14.8-5.6c.6-.2.9-.8.9-1.4v-6.6c0-.6-.4-1.1-.9-1.4ZM75.8,81.8c0,1.4-1.2,2.6-2.6,2.6s-2.6-1.2-2.6-2.6,1.2-2.6,2.6-2.6,2.6,1.2,2.6,2.6ZM2.9,29l44.5,17v3.5L2.9,32.5v-3.5ZM50.3,49.5v-3.5l21.5-8.2v3.5l-21.5,8.2ZM79.1,62.7c-1.4,1.1-2.9,2.1-4.4,3.1v-22.4l4.4-1.7v21.1ZM74.7,40.2v-3.5l20.2-7.7v3.5l-20.2,7.7Z"/>
</svg>