<?xml version="1.0" encoding="UTF-8"?>
<svg id="Layer_1" xmlns="http://www.w3.org/2000/svg" version="1.1" viewBox="0 0 81 81">
  <!-- Generator: Adobe Illustrator 29.0.0, SVG Export Plug-In . SVG Version: 2.1.0 Build 186)  -->
  <defs>
    <style>
      .st0 {
        fill: #1c2e5d;
        fillRule: evenodd;
      }
    </style>
  </defs>
  <path class="st0" d="M35.1,45.3h10.8v-6.2l-3.1,3.1c-.2.2-.6.4-.9.4s-.6-.1-.9-.4l-2.8-2.8c-.2-.2-.4-.6-.4-.9,0-.3.1-.6.4-.9.2-.2.5-.4.9-.4.3,0,.6.1.9.4l1.9,1.9,4-4v-1h-10.8v10.8h0ZM24.3,32.6c.3,0,.5-.1.7-.3.2-.2.3-.5.3-.7v-1h-6.6v1c0,.3.1.5.3.7.2.2.5.3.7.3h4.5ZM18.7,34.9c-.7-.2-1.3-.7-1.7-1.3-.4-.6-.7-1.3-.7-2.1,0-3.3.2-3.7-1.8-6.6-1.3-1.8-2.7-3.7-2.7-7s1.1-5.4,3-7.3c1.9-1.9,4.6-3,7.3-3s5.4,1.1,7.3,3c1.9,1.9,3,4.6,3,7.3,0,6.1-4.5,7.4-4.5,11.3v2.3c0,.7-.2,1.5-.7,2.1-.4.6-1,1.1-1.7,1.3-.2.7-.7,1.3-1.3,1.8-.6.4-1.3.7-2.1.7s-1.5-.2-2.1-.7c-.6-.4-1.1-1.1-1.3-1.8ZM22.1,17.8c3.3,0,5,4,2.7,6.4-.4.4-.9.7-1.5.9v2.9h2.2c.7-4.1,4.4-5.4,4.4-10.1s-.8-4.1-2.3-5.5c-1.5-1.5-3.5-2.3-5.5-2.3s-4.1.8-5.5,2.3-2.3,3.5-2.3,5.5c0,4.7,3.8,6,4.4,10.1h2.1v-2.9c-.9-.3-1.6-.9-2-1.7-.4-.8-.6-1.7-.4-2.5.2-.9.6-1.7,1.3-2.2.7-.6,1.5-.9,2.4-.9ZM23,20.7c-.2-.2-.4-.3-.6-.3-.2,0-.5,0-.7,0-.2,0-.4.3-.6.5-.1.2-.2.4-.2.7s0,.5.2.7c.1.2.3.4.6.5.2,0,.5.1.7,0,.2,0,.5-.2.6-.3.2-.2.4-.6.4-.9s-.1-.6-.4-.9ZM35.7,16.7c.3,0,.6.1.9.4.2.2.4.6.4.9s-.1.6-.4.9c-.2.2-.6.4-.9.4h-1.1c-.3,0-.6-.1-.9-.4-.2-.2-.4-.6-.4-.9s.1-.6.4-.9c.2-.2.6-.4.9-.4h1.1ZM30.8,7.5l-.8.8c-.2.2-.4.6-.4.9,0,.3.1.6.4.9.2.2.6.4.9.4.3,0,.6-.1.9-.4l.8-.8c.1-.1.2-.3.3-.4,0-.2,0-.3.1-.5,0-.2,0-.3,0-.5,0-.2-.2-.3-.3-.4-.1-.1-.3-.2-.4-.3s-.3,0-.5,0c-.2,0-.3,0-.5.1-.2,0-.3.2-.4.3h0ZM8.5,19.2c-.3,0-.6-.1-.9-.4-.2-.2-.4-.6-.4-.9s.1-.6.4-.9c.2-.2.6-.4.9-.4h1.1c.3,0,.6.1.9.4.2.2.4.6.4.9s-.1.6-.4.9c-.2.2-.6.4-.9.4h-1.1ZM11.6,9.2l.8.8c.1.1.3.2.4.3.2,0,.3,0,.5.1.2,0,.3,0,.5,0,.2,0,.3-.2.4-.3.1-.1.2-.3.3-.4,0-.2,0-.3,0-.5,0-.2,0-.3-.1-.5,0-.2-.2-.3-.3-.4l-.8-.8c-.1-.1-.3-.2-.4-.3s-.3,0-.5-.1c-.2,0-.3,0-.5,0-.2,0-.3.2-.4.3-.1.1-.2.3-.3.4,0,.2,0,.3,0,.5,0,.2,0,.3.1.5,0,.2.2.3.3.4ZM20.8,4.4c0-.3.1-.6.4-.9.2-.2.6-.4.9-.4s.6.1.9.4c.2.2.4.6.4.9v1.1c0,.3-.1.6-.4.9-.2.2-.6.4-.9.4s-.6-.1-.9-.4c-.2-.2-.4-.6-.4-.9v-1.1ZM49.4,32.1c.1-.1.3-.2.4-.3.2,0,.3,0,.5-.1.2,0,.3,0,.5,0,.2,0,.3.2.4.3s.2.3.3.4c0,.2,0,.3,0,.5,0,.2,0,.3-.1.5,0,.2-.2.3-.3.4l-2.8,2.8v10c0,.3-.1.6-.4.9-.2.2-.6.4-.9.4h-13.3c-.3,0-.6-.1-.9-.4-.2-.2-.4-.6-.4-.9v-13.3c0-.3.1-.6.4-.9.2-.2.6-.4.9-.4h13.3c.3,0,.6.1.8.3.2.2.4.5.4.7l1-1h0ZM29.9,38.7c.3,0,.6.1.9.4.2.2.4.6.4.9s-.1.6-.4.9c-.2.2-.6.4-.9.4h-4.6c-4.4,0-7.9,3.6-8,8v4.7c0,4.3,3.6,7.8,7.9,7.8h12.3l-1.1-1.1c-.2-.2-.4-.6-.4-.9,0-.3.1-.6.4-.9.2-.2.6-.4.9-.4.3,0,.6.1.9.4l3.2,3.2c.1.1.2.3.3.4,0,.2.1.3.1.5s0,.4-.1.5-.2.3-.3.4l-3.2,3.2c-.2.2-.5.4-.9.4-.3,0-.6-.1-.9-.4-.2-.2-.4-.5-.4-.9,0-.3.1-.6.4-.9l1.1-1.1h-12.3c-5.7,0-10.6-4.7-10.4-10.5v-4.5c.2-5.7,4.8-10.4,10.5-10.4h4.6ZM57.3,48.2h4.4c.3,0,.6.1.9.4.2.2.4.6.4.9v1.1c1,.3,1.9.7,2.8,1.2l.8-.8c.2-.2.6-.4.9-.4s.6.1.9.4l3.1,3.1c.2.2.4.6.4.9s-.1.6-.4.9l-.8.8c.5.9.9,1.8,1.2,2.8h1.1c.3,0,.6.1.9.4.2.2.4.6.4.9v4.4c0,.3-.1.6-.4.9-.2.2-.6.4-.9.4h-1.1c-.3,1-.7,1.9-1.2,2.8l.8.8c.2.2.4.6.4.9s-.1.6-.4.9l-3.1,3.1c-.2.2-.6.4-.9.4s-.6-.1-.9-.4l-.8-.8c-.9.5-1.8.9-2.8,1.2v1.1c0,.3-.1.6-.4.9-.2.2-.6.4-.9.4h-4.4c-.3,0-.6-.1-.9-.4-.2-.2-.4-.6-.4-.9v-1.1c-1-.3-1.9-.7-2.8-1.2l-.8.8c-.2.2-.6.4-.9.4s-.6-.1-.9-.4l-3.1-3.1c-.2-.2-.4-.6-.4-.9s.1-.6.4-.9l.8-.8c-.5-.9-.9-1.8-1.2-2.8h-1.1c-.3,0-.6-.1-.9-.4-.2-.2-.4-.6-.4-.9v-4.4c0-.3.1-.6.4-.9.2-.2.6-.4.9-.4h1.1c.3-1,.7-1.9,1.2-2.8l-.8-.8c-.2-.2-.4-.6-.4-.9s.1-.6.4-.9l3.1-3.1c.2-.2.6-.4.9-.4s.6.1.9.4l.8.8c.9-.5,1.8-.9,2.8-1.2v-1.1c0-.3.1-.6.4-.9.2-.2.6-.4.9-.4h0ZM60.4,50.7h-1.9v.9h0c0,.3-.1.6-.3.8-.2.2-.4.4-.7.4-1.3.3-2.6.8-3.7,1.5-.2.2-.5.3-.8.2-.3,0-.6-.2-.8-.4l-.6-.6-1.3,1.3.6.6c.2.2.3.5.4.8,0,.3,0,.6-.2.8-.7,1-1.3,2.5-1.6,3.7,0,.3-.2.6-.4.8-.2.2-.5.3-.8.3h-.9v1.9h.9c.3,0,.6.1.8.3.2.2.4.4.4.7.3,1.3.8,2.6,1.5,3.7.2.2.3.5.2.8,0,.3-.2.6-.4.8l-.6.6,1.3,1.3.6-.6h0c.2-.2.5-.3.8-.4.3,0,.6,0,.8.2,1,.7,2.5,1.3,3.7,1.6.3,0,.6.2.8.4.2.2.3.5.3.8v.9h1.9v-.9h0c0-.3.1-.6.3-.8.2-.2.4-.4.7-.4,1.3-.3,2.6-.8,3.7-1.5.2-.2.5-.3.8-.2.3,0,.6.2.8.4l.6.6,1.3-1.3-.6-.6c-.2-.2-.3-.5-.4-.8,0-.3,0-.6.2-.8.7-1,1.3-2.5,1.6-3.7,0-.3.2-.6.4-.8.2-.2.5-.3.8-.3h.9v-1.9h-.9c-.3,0-.6-.1-.8-.3-.2-.2-.4-.4-.4-.7-.3-1.3-.8-2.6-1.5-3.7-.2-.2-.3-.5-.2-.8,0-.3.2-.6.4-.8l.6-.6-1.3-1.3-.6.6c-.2.2-.5.3-.8.4-.3,0-.6,0-.8-.2-1-.7-2.5-1.3-3.7-1.6-.3,0-.6-.2-.8-.4-.2-.2-.3-.5-.3-.8v-.9h0ZM59.4,57.3c-1.1,0-2.2.3-3.1.9-.9.6-1.6,1.5-2,2.5-.4,1-.5,2.1-.3,3.2.2,1.1.7,2.1,1.5,2.8.8.8,1.8,1.3,2.8,1.5,1.1.2,2.2.1,3.2-.3,1-.4,1.9-1.1,2.5-2,.6-.9.9-2,.9-3.1s-.1-1.4-.4-2.1c-.3-.7-.7-1.3-1.2-1.8-.5-.5-1.1-.9-1.8-1.2-.7-.3-1.4-.4-2.1-.4ZM53.8,57.2c-1.1,1.1-1.9,2.6-2.2,4.1-.3,1.6-.2,3.2.5,4.6.6,1.5,1.6,2.7,3,3.6,1.3.9,2.9,1.4,4.5,1.4s3.1-.5,4.5-1.4c1.3-.9,2.4-2.1,3-3.6.6-1.5.8-3.1.5-4.6-.3-1.6-1.1-3-2.2-4.1-.7-.7-1.6-1.3-2.6-1.7-1-.4-2-.6-3.1-.6s-2.1.2-3.1.6c-1,.4-1.9,1-2.6,1.7ZM50.2,41.8c-.1-.1-.2-.3-.3-.4,0-.2-.1-.3-.1-.5s0-.4.1-.5c0-.2.2-.3.3-.4l3.2-3.2c.1-.1.3-.2.4-.3.2,0,.3,0,.5,0,.2,0,.3,0,.5,0,.2,0,.3.2.4.3.1.1.2.3.3.4,0,.2,0,.3,0,.5,0,.2,0,.3,0,.5,0,.2-.2.3-.3.4l-1.1,1.1h1.6c4.4,0,7.9-3.6,8-8v-4.7c0-4.3-3.6-7.8-7.9-7.8h-15.2c-.3,0-.6-.1-.9-.4-.2-.2-.4-.6-.4-.9s.1-.6.4-.9c.2-.2.6-.4.9-.4h15.2c5.7,0,10.6,4.7,10.4,10.5v4.5c-.2,5.7-4.8,10.4-10.5,10.4h-1.6l1.1,1.1c.2.2.4.6.4.9,0,.3-.1.6-.4.9-.2.2-.5.4-.9.4-.3,0-.6-.1-.9-.4l-3.2-3.2Z"/>
</svg>