<?xml version="1.0" encoding="UTF-8"?>
<svg id="Layer_1" xmlns="http://www.w3.org/2000/svg" version="1.1" viewBox="0 0 60 61">
  <!-- Generator: Adobe Illustrator 29.0.0, SVG Export Plug-In . SVG Version: 2.1.0 Build 186)  -->
  <defs>
    <style>
      .st0 {
        fill: #1c2e5d;
      }
    </style>
  </defs>
  <path class="st0" d="M43.7,15c-3.1-4.5-8.2-7.3-13.6-7.3-4.4,0-8.6,1.7-11.8,4.8-3.2,3.2-4.9,7.4-4.9,11.9s1.5,8.1,4.3,11.2l2.5,3.4c.2.2.4.4.7.4s.4,0,.5-.2c.4-.3.5-.8.2-1.2l-2.6-3.5s0,0,0,0c-2.5-2.8-3.9-6.3-3.9-10s1.6-7.8,4.4-10.6c2.8-2.8,6.5-4.3,10.4-4.3s0,0,0,0c4.9,0,9.5,2.5,12.2,6.5.3.4.8.5,1.2.2.4-.3.5-.8.2-1.2Z"/>
  <path class="st0" d="M45.5,18.4c-.2-.5-.7-.7-1.1-.5-.5.2-.7.7-.5,1.1.6,1.7,1,3.5,1,5.4,0,3.7-1.4,7.3-3.9,10.1,0,0,0,0,0,0l-.6.8c-.7,1-1.4,1.9-2.1,2.9,0,0,0,0,0,0-1.3,2.4-2.3,4.7-2.9,6.4h-10.5c-.4-1.1-.9-2.2-1.3-3.3-.2-.4-.7-.6-1.2-.4-.4.2-.6.7-.4,1.2.4.9.8,1.8,1.1,2.6h0c-.5,0-.9.4-.9.9v2.6h-.4c-.5,0-.9.4-.9.9v3.5c0,.5.4.9.9.9h.4v2.6c0,.5.4.9.9.9h.6l.6,2.8c0,.4.4.7.9.7h10.2c.4,0,.8-.3.9-.7l.6-2.8h.6c.5,0,.9-.4.9-.9v-2.6h.4c.5,0,.9-.4.9-.9v-3.5c0-.5-.4-.9-.9-.9h-.4v-2.6c0-.5-.4-.9-.9-.9h0c.6-1.6,1.4-3.5,2.6-5.5.7-.9,1.4-1.9,2.1-2.8l.6-.8c2.8-3.1,4.3-7.1,4.3-11.2,0-2.1-.4-4.1-1.1-6ZM34.4,58.7h-8.8l-.4-1.8h9.5l-.4,1.8ZM36.3,55.2h-12.5v-1.8h12.5v1.8ZM37.6,50v1.8h-15.1v-1.8h3.8c.5,0,.9-.4.9-.9s-.4-.9-.9-.9h-2.5v-1.8h0s.1,0,.2,0c0,0-.2,0-.2,0h12.5s-.1,0-.2,0c0,0,.2,0,.2,0h0v1.8h-6.3c-.5,0-.9.4-.9.9s.4.9.9.9h7.6Z"/>
  <path class="st0" d="M30,.5c-.5,0-.9.4-.9.9v4c0,.5.4.9.9.9s.9-.4.9-.9V1.4c0-.5-.4-.9-.9-.9Z"/>
  <path class="st0" d="M20.8,7.6l-2-3.5c-.2-.4-.8-.6-1.2-.3-.4.2-.6.8-.3,1.2l2,3.5c.2.3.5.4.8.4s.3,0,.4-.1c.4-.2.6-.8.3-1.2Z"/>
  <path class="st0" d="M13.1,14.6l-3.5-2c-.4-.2-1,0-1.2.3-.2.4,0,1,.3,1.2l3.5,2c.1,0,.3.1.4.1.3,0,.6-.2.8-.4.2-.4,0-1-.3-1.2Z"/>
  <path class="st0" d="M51.2,36.6l-3.5-2c-.4-.2-1,0-1.2.3-.2.4,0,1,.3,1.2l3.5,2c.1,0,.3.1.4.1.3,0,.6-.2.8-.4.2-.4,0-1-.3-1.2Z"/>
  <path class="st0" d="M10,24.5h-4c-.5,0-.9.4-.9.9s.4.9.9.9h4c.5,0,.9-.4.9-.9s-.4-.9-.9-.9Z"/>
  <path class="st0" d="M54,24.5h-4c-.5,0-.9.4-.9.9s.4.9.9.9h4c.5,0,.9-.4.9-.9s-.4-.9-.9-.9Z"/>
  <path class="st0" d="M13.4,34.9c-.2-.4-.8-.6-1.2-.3l-3.5,2c-.4.2-.6.8-.3,1.2.2.3.5.4.8.4s.3,0,.4-.1l3.5-2c.4-.2.6-.8.3-1.2Z"/>
  <path class="st0" d="M51.6,12.9c-.2-.4-.8-.6-1.2-.3l-3.5,2c-.4.2-.6.8-.3,1.2.2.3.5.4.8.4s.3,0,.4-.1l3.5-2c.4-.2.6-.8.3-1.2Z"/>
  <path class="st0" d="M42.5,3.7c-.4-.2-1,0-1.2.3l-2,3.5c-.2.4,0,1,.3,1.2.1,0,.3.1.4.1.3,0,.6-.2.8-.4l2-3.5c.2-.4,0-1-.3-1.2Z"/>
  <path class="st0" d="M26,28.3l-4.1-3.3,4.1-3.3c.4-.3.4-.9.1-1.2-.3-.4-.9-.4-1.2-.1l-4.9,4c-.2.2-.3.4-.3.7s.1.5.3.7l4.9,4c.2.1.4.2.6.2s.5-.1.7-.3c.3-.4.2-.9-.1-1.2Z"/>
  <path class="st0" d="M40,24.3l-4.9-4c-.4-.3-.9-.2-1.2.1-.3.4-.2.9.1,1.2l4.1,3.3-4.1,3.3c-.4.3-.4.9-.1,1.2.2.2.4.3.7.3s.4,0,.6-.2l4.9-4c.2-.2.3-.4.3-.7s-.1-.5-.3-.7Z"/>
  <path class="st0" d="M33,17.7c-.4-.2-1,0-1.1.5l-5.4,12.9c-.2.4,0,1,.5,1.1.1,0,.2,0,.3,0,.3,0,.7-.2.8-.5l5.4-12.9c.2-.4,0-1-.5-1.1Z"/>
</svg>