<?xml version="1.0" encoding="UTF-8"?>
<svg id="Layer_1" xmlns="http://www.w3.org/2000/svg" version="1.1" viewBox="0 0 80 81">
  <!-- Generator: Adobe Illustrator 29.0.0, SVG Export Plug-In . SVG Version: 2.1.0 Build 186)  -->
  <defs>
    <style>
      .st0 {
        fill: #1c2e5d;
      }
    </style>
  </defs>
  <path class="st0" d="M76,9.6h-15.1l-3.2-3.2c-.9-.9-2.4-1-3.4-.3l-3.3,2.3c-1.5-.9-3.2-1.5-4.9-2l-.7-4c-.2-1.3-1.3-2.2-2.6-2.2h-5.7c-1.3,0-2.4.9-2.6,2.2l-.7,4c-1.7.5-3.3,1.2-4.9,2l-3.3-2.4c-1.1-.8-2.5-.6-3.4.3l-3.2,3.2H4c-2.2,0-4,1.8-4,4v49.3c0,2.2,1.8,4,4,4h24c-.3,2.1-1.4,4.1-3,5.5h-.9c-2.1,0-3.9,1.7-3.9,3.9s1.7,3.9,3.9,3.9h32c2.1,0,3.9-1.7,3.9-3.9s-1.7-3.9-3.9-3.9h-.9c-1.7-1.4-2.8-3.3-3-5.5h24c2.2,0,4-1.8,4-4V13.6c0-2.2-1.8-4-4-4ZM24.1,8.4l3.3,2.4c.8.6,2,.7,2.9.1,1.4-.8,2.8-1.4,4.3-1.8,1-.3,1.7-1.1,1.9-2.1l.7-4h5.7l.7,4c.2,1,.9,1.8,1.9,2.1,1.5.4,2.9,1,4.3,1.8.9.5,2,.5,2.9-.1l3.3-2.4,3.5,3.5h0s.5.5.5.5l-2.4,3.3c-.6.8-.7,2-.1,2.9.8,1.4,1.4,2.8,1.8,4.3.3,1,1.1,1.7,2.1,1.9l4,.7v5.7l-4,.7c-1,.2-1.8.9-2.1,1.9-.4,1.5-1,2.9-1.8,4.3-.5.9-.5,2,.1,2.9l2.4,3.3-4.1,4.1-3.3-2.4c-.8-.6-2-.7-2.9-.1-1.4.8-2.8,1.4-4.3,1.8-1,.3-1.7,1.1-1.9,2.1l-.7,4h-5.7l-.7-4c-.2-1-.9-1.8-1.9-2.1-1.5-.4-2.9-1-4.3-1.8-.4-.2-.9-.4-1.3-.4-.5,0-1.1.2-1.5.5l-3.3,2.4-4.1-4.1,2.4-3.3c.6-.8.7-2,.1-2.9-.8-1.4-1.4-2.8-1.8-4.3-.3-1-1.1-1.7-2.1-1.9l-4-.7v-5.7l4-.7c1-.2,1.8-.9,2.1-1.9.4-1.5,1-2.9,1.8-4.3.5-.9.5-2-.1-2.9l-2.4-3.3.5-.5h0s3.5-3.6,3.5-3.6ZM57.5,76.3c0,.8-.7,1.5-1.5,1.5H24c-.8,0-1.5-.7-1.5-1.5s.7-1.5,1.5-1.5h32c.8,0,1.5.7,1.5,1.5ZM51.7,72.4h-23.4c1.1-1.6,1.9-3.5,2.1-5.5h19.1c.3,2,1,3.8,2.1,5.5ZM76,64.3H4c-.7,0-1.3-.6-1.3-1.3v-2.7h5.3c.7,0,1.3-.6,1.3-1.3s-.6-1.3-1.3-1.3H2.7V13.6c0-.7.6-1.3,1.3-1.3h13.4c0,.6.1,1.2.5,1.7l2.3,3.3c-.9,1.5-1.5,3.2-2,4.9l-4,.7c-1.3.2-2.2,1.3-2.2,2.6v5.7c0,1.3.9,2.4,2.2,2.6l4,.7c.5,1.7,1.2,3.3,2,4.9l-2.4,3.3c-.8,1.1-.6,2.5.3,3.4l4.1,4.1c.9.9,2.4,1,3.4.3l3.3-2.3c1.5.9,3.2,1.5,4.9,2l.7,4c.2,1.3,1.3,2.2,2.6,2.2h5.7c1.3,0,2.4-.9,2.6-2.2l.7-4c1.7-.5,3.3-1.2,4.9-2l3.3,2.4c1.1.8,2.5.6,3.4-.3l4.1-4.1c.9-.9,1-2.4.3-3.4l-2.3-3.3c.9-1.5,1.5-3.2,2-4.9l4-.7c1.3-.2,2.2-1.3,2.2-2.6v-5.7c0-1.3-.9-2.4-2.2-2.6l-4-.7s0,0,0,0c-.5-1.7-1.2-3.3-2-4.9l2.4-3.3c.3-.5.5-1.1.5-1.7h13.4c.7,0,1.3.6,1.3,1.3v44H13.3c-.7,0-1.3.6-1.3,1.3s.6,1.3,1.3,1.3h64v2.7c0,.7-.6,1.3-1.3,1.3Z"/>
  <path class="st0" d="M40,45.6c9.6,0,17.3-7.8,17.3-17.3s-7.8-17.3-17.3-17.3-17.3,7.8-17.3,17.3c0,9.6,7.8,17.3,17.3,17.3ZM40,13.6c8.1,0,14.7,6.6,14.7,14.7s-6.6,14.7-14.7,14.7-14.7-6.6-14.7-14.7c0-8.1,6.6-14.7,14.7-14.7Z"/>
  <path class="st0" d="M28.4,29.2l5.3,5.3c.5.5,1.4.5,1.9,0,.5-.5.5-1.3,0-1.9l-4.4-4.4,4.4-4.4c.5-.5.5-1.4,0-1.9s-1.3-.5-1.9,0l-5.3,5.3c-.5.5-.5,1.4,0,1.9Z"/>
  <path class="st0" d="M44.4,34.6c.5.5,1.4.5,1.9,0l5.3-5.3c.5-.5.5-1.4,0-1.9l-5.3-5.3c-.5-.5-1.4-.5-1.9,0-.5.5-.5,1.3,0,1.9l4.4,4.4-4.4,4.4c-.5.5-.5,1.4,0,1.9Z"/>
  <path class="st0" d="M38.3,34.9c.1,0,.2,0,.3,0,.6,0,1.1-.4,1.3-1l2.7-10.7c.2-.7-.3-1.4-1-1.6-.7-.2-1.4.2-1.6.9l-2.7,10.7c0,.3,0,.7.2,1s.5.5.8.6Z"/>
</svg>