<?xml version="1.0" encoding="UTF-8"?>
<svg id="Layer_1" xmlns="http://www.w3.org/2000/svg" version="1.1" viewBox="0 0 66 61">
  <!-- Generator: Adobe Illustrator 29.0.0, SVG Export Plug-In . SVG Version: 2.1.0 Build 186)  -->
  <defs>
    <style>
      .st0 {
        fill: #1c2e5d;
      }
    </style>
  </defs>
  <path class="st0" d="M59.8,36.7c-.4-.3-1-.2-1.3.2-.3.4-.2,1,.2,1.3,3,2.1,4.8,5.6,4.8,9.3s-1,5.2-2.6,7.2c-1.3-2.6-3.2-4.2-4.6-5.2.8-1,1.2-2.2,1.2-3.4,0-3-2.4-5.4-5.4-5.4s-5.4,2.4-5.4,5.4.4,2.5,1.2,3.4c-1.5,1-3.3,2.6-4.6,5.2-1.6-2-2.6-4.5-2.6-7.2,0-6.3,5.1-11.4,11.4-11.4s2.4.2,3.5.6c.5.2,1-.1,1.2-.6.2-.5-.1-1-.6-1.2-1.3-.4-2.7-.7-4.1-.7-4.3,0-8.2,2.1-10.6,5.3l-7.5-4.9v-7.4c6.9-.5,12.3-6.2,12.3-13.2S40.3.8,33,.8s-5.3.8-7.5,2.4c-.4.3-.5.9-.2,1.3.3.4.9.5,1.3.2,1.9-1.3,4.1-2,6.5-2,6.3,0,11.4,5.1,11.4,11.4s-1,5.2-2.6,7.2c-1.3-2.6-3.2-4.2-4.6-5.2.8-1,1.2-2.2,1.2-3.4,0-3-2.4-5.4-5.4-5.4s-5.4,2.4-5.4,5.4.4,2.5,1.2,3.4c-1.5,1-3.3,2.6-4.6,5.2-1.6-2-2.6-4.5-2.6-7.2s.8-4.9,2.4-6.9c.3-.4.2-1-.2-1.3-.4-.3-1-.2-1.3.2-1.8,2.3-2.8,5.1-2.8,8.1,0,7,5.4,12.8,12.3,13.2v7.4l-7.6,4.9c-2.4-3.2-6.3-5.3-10.6-5.3-7.3,0-13.3,6-13.3,13.3s1.1,6,3,8.4c1.9,2.3,4.5,4,7.4,4.6.5.1,1-.2,1.1-.7.1-.5-.2-1-.7-1.1-1.8-.4-3.5-1.2-4.9-2.4,1.5-3.2,3.9-4.9,5.3-5.7.6-.3.7-1.2.1-1.6-.9-.7-1.4-1.7-1.4-2.8,0-1.9,1.6-3.5,3.5-3.5s3.5,1.6,3.5,3.5-.5,2.2-1.4,2.8c-.6.4-.5,1.3.1,1.6,1.4.7,3.8,2.4,5.2,5.6-1.8,1.5-4,2.5-6.4,2.7-.5,0-.9.5-.9,1,0,.5.5.9.9.9s0,0,0,0c3.3-.3,6.3-1.8,8.6-4.2,2.3-2.5,3.5-5.6,3.5-9s-.6-4.5-1.6-6.4l7.5-4.8,7.5,4.8c-1,1.9-1.6,4.1-1.6,6.4,0,7.3,6,13.3,13.3,13.3s13.3-6,13.3-13.3-2.1-8.3-5.6-10.8ZM22.7,54.7c-1.3-2.6-3.2-4.2-4.6-5.2.8-1,1.2-2.2,1.2-3.4,0-3-2.4-5.4-5.4-5.4s-5.4,2.4-5.4,5.4.4,2.5,1.2,3.4c-1.5,1-3.3,2.6-4.7,5.2,0,0,0,0,0,0-1.6-2-2.5-4.6-2.5-7.2,0-6.3,5.1-11.4,11.4-11.4s11.4,5.1,11.4,11.4-.9,5.2-2.6,7.2ZM30.9,17.1c.6-.3.7-1.2.1-1.6-.9-.7-1.4-1.7-1.4-2.8,0-1.9,1.6-3.5,3.5-3.5s3.5,1.6,3.5,3.5-.5,2.2-1.4,2.8c-.6.4-.5,1.3.1,1.6,1.4.7,3.8,2.4,5.2,5.6-2,1.7-4.6,2.7-7.4,2.7s-5.4-1-7.4-2.7c1.5-3.2,3.9-4.9,5.2-5.6ZM52.1,58.9c-2.8,0-5.4-1-7.4-2.7,1.5-3.2,3.9-4.9,5.2-5.6.6-.3.7-1.2.1-1.6-.9-.7-1.4-1.7-1.4-2.8,0-1.9,1.6-3.5,3.5-3.5s3.5,1.6,3.5,3.5-.5,2.2-1.4,2.8c-.6.4-.5,1.3.1,1.6,1.4.7,3.8,2.4,5.2,5.6-2,1.7-4.6,2.7-7.4,2.7Z"/>
</svg>