<?xml version="1.0" encoding="UTF-8"?>
<svg id="Layer_1" xmlns="http://www.w3.org/2000/svg" version="1.1" viewBox="0 0 80 80">
  <!-- Generator: Adobe Illustrator 29.0.0, SVG Export Plug-In . SVG Version: 2.1.0 Build 186)  -->
  <defs>
    <style>
      .st0 {
        fill: #1c2e5d;
      }
    </style>
  </defs>
  <path class="st0" d="M78.8,56.2h-2.3c-.3-1-.7-1.9-1.2-2.8l1.7-1.7c.5-.5.5-1.2,0-1.7l-.6-.6c1.4-4,2.1-8.1,2.1-12.3,0-6-1.5-12.1-4.3-17.4v-5.7h1c.6,0,1.2-.5,1.2-1.2v-4.8c0-.5-.3-.9-.7-1.1l-3.8-1.6c-.6-.3-1.3,0-1.5.6-.3.6,0,1.3.6,1.5l3.1,1.3v2.9h-26.7v-2.9l13.4-5.8,5.2,2.3c.6.3,1.3,0,1.5-.6.3-.6,0-1.3-.6-1.5l-5.7-2.5c-.3-.1-.6-.1-.9,0l-4.8,2C51,.9,46.2,0,41.4,0,34.3,0,27.5,2,21.5,5.7c-5.6,3.6-10.2,8.5-13.2,14.4H1.2c-.6,0-1.2.5-1.2,1.2v37.8c0,.6.5,1.2,1.2,1.2h11.1c7.1,8.9,17.7,14,29.1,14s3.8-.1,5.6-.4l3.1,3.1c.2.2.5.3.8.3s.6-.1.8-.3l1.7-1.7c.9.5,1.9.9,2.8,1.2v2.3c0,.6.5,1.2,1.2,1.2h7.2c.6,0,1.2-.5,1.2-1.2v-2.3c1-.3,1.9-.7,2.8-1.2l1.7,1.7c.2.2.5.3.8.3s.6-.1.8-.3l5.1-5.1c.5-.5.5-1.2,0-1.7l-1.7-1.7c.5-.9.9-1.9,1.2-2.8h2.3c.6,0,1.2-.5,1.2-1.2v-7.2c0-.6-.5-1.2-1.2-1.2ZM67.8,17.9h-7.2c-.6,0-1.2.5-1.2,1.2v4c0,.6.5,1.2,1.2,1.2s1.2-.5,1.2-1.2v-2.8h4.8v10.8h-4.8v-2.5c0-.6-.5-1.2-1.2-1.2s-1.2.5-1.2,1.2v2.5h-10.1v-4h5.6c.6,0,1.2-.5,1.2-1.2v-6.7c0-.6-.5-1.2-1.2-1.2h-5.6v-3.8h22.5v17h-2.9v-11.9c0-.6-.5-1.2-1.2-1.2ZM49.4,20.3h4.4v4.4h-4.4v-4.4ZM2.3,22.5h21.8v24c0,.6.5,1.2,1.2,1.2s1.2-.5,1.2-1.2v-20h8.9v2.5h-3.6c-.6,0-1.2.5-1.2,1.2v4.7c0,.6.5,1.2,1.2,1.2h3.6v2.6h-3.6c-.6,0-1.2.5-1.2,1.2v4.7c0,.6.5,1.2,1.2,1.2h3.6v2.6h-3.6c-.6,0-1.2.5-1.2,1.2v4.7c0,.6.5,1.2,1.2,1.2h3.6v2.5h-8.9v-6c0-.6-.5-1.2-1.2-1.2s-1.2.5-1.2,1.2v6h-4.9v-12.9c0-.6-.5-1.2-1.2-1.2h-9.6c-.6,0-1.2.5-1.2,1.2v12.9H2.3V22.5ZM35.3,33.8h-2.4v-2.4h2.4v2.4ZM35.3,43.5h-2.4v-2.4h2.4v2.4ZM35.3,53.2h-2.4v-2.4h2.4v2.4ZM9.6,58v-11.7h7.3v11.7h-7.3ZM15.4,60.3h21.1c.6,0,1.2-.5,1.2-1.2V25.4c0-.6-.5-1.2-1.2-1.2h-10v-2.9c0-.6-.5-1.2-1.2-1.2h-14.3c2.8-5.1,6.9-9.3,11.8-12.5,5.2-3.3,11.2-5.1,17.4-5.3v14.5c0,.6.5,1.2,1.2,1.2s1.2-.5,1.2-1.2V2.4c3.4.1,6.7.7,9.8,1.8l-6.7,2.9c-.4.2-.7.6-.7,1.1v4.8c0,.6.5,1.2,1.2,1.2h.9v18.1c0,.6.5,1.2,1.2,1.2h24.9c.6,0,1.2-.5,1.2-1.2v-6.6c1.2,3.4,1.9,7.1,1.9,10.7h-33.6v-14.1c0-.6-.5-1.2-1.2-1.2s-1.2.5-1.2,1.2v15.2c0,.6.5,1.2,1.2,1.2h34.8c-.1,3-.7,6-1.6,8.9l-2.7-2.7c-.2-.2-.5-.3-.8-.3s-.6.1-.8.3l-1.7,1.7c-.9-.5-1.9-.9-2.8-1.2v-2.3c0-.6-.5-1.2-1.2-1.2h-7.2c-.6,0-1.2.5-1.2,1.2v2.3c-1,.3-1.9.7-2.8,1.2l-1.7-1.7c-.2-.2-.5-.3-.8-.3s-.6.1-.8.3l-5.1,5.1c-.5.5-.5,1.2,0,1.7l1.7,1.7c-.5.9-.9,1.9-1.2,2.8h-2.3c-.6,0-1.2.5-1.2,1.2v7.2c0,.6.5,1.2,1.2,1.2h2.3c.3,1,.7,1.9,1.2,2.8l-1.7,1.7c-.4.4-.5,1.1,0,1.6-1.2.1-2.4.2-3.5.2-10,0-19.4-4.2-26-11.7ZM77.7,63.4h-2.1c-.5,0-1,.4-1.1.9-.3,1.4-.9,2.7-1.6,3.9-.3.5-.2,1.1.2,1.4l1.5,1.5-3.4,3.4-1.5-1.5c-.4-.4-1-.5-1.4-.2-1.2.7-2.5,1.3-3.9,1.6-.5.1-.9.6-.9,1.1v2.1h-4.8v-2.1c0-.5-.4-1-.9-1.1-1.4-.3-2.7-.9-3.9-1.6-.5-.3-1.1-.2-1.4.2l-1.5,1.5-3.4-3.4,1.5-1.5c.4-.4.5-1,.2-1.4-.7-1.2-1.3-2.5-1.6-3.9-.1-.5-.6-.9-1.1-.9h-2.1v-4.8h2.1c.5,0,1-.4,1.1-.9.3-1.4.9-2.7,1.6-3.9.3-.5.2-1.1-.2-1.4l-1.5-1.5,3.4-3.4,1.5,1.5c.4.4,1,.5,1.4.2,1.2-.7,2.5-1.3,3.9-1.6.5-.1.9-.6.9-1.1v-2.1h4.8v2.1c0,.5.4,1,.9,1.1,1.4.3,2.7.9,3.9,1.6.5.3,1.1.2,1.4-.2l1.5-1.5,3.4,3.4-1.5,1.5c-.4.4-.5,1-.2,1.4.7,1.2,1.3,2.5,1.6,3.9.1.5.6.9,1.1.9h2.1v4.8Z"/>
  <path class="st0" d="M61,49.7c-6.1,0-11.1,5-11.1,11.1s5,11.1,11.1,11.1,11.1-5,11.1-11.1-5-11.1-11.1-11.1ZM61,69.6c-4.9,0-8.8-3.9-8.8-8.8s3.9-8.8,8.8-8.8,8.8,3.9,8.8,8.8-3.9,8.8-8.8,8.8Z"/>
  <path class="st0" d="M15.7,32h4.7c.6,0,1.2-.5,1.2-1.2v-4.7c0-.6-.5-1.2-1.2-1.2h-4.7c-.6,0-1.2.5-1.2,1.2v4.7c0,.6.5,1.2,1.2,1.2ZM16.8,27.3h2.4v2.4h-2.4v-2.4Z"/>
  <path class="st0" d="M6.2,32h4.7c.6,0,1.2-.5,1.2-1.2v-4.7c0-.6-.5-1.2-1.2-1.2h-4.7c-.6,0-1.2.5-1.2,1.2v4.7c0,.6.5,1.2,1.2,1.2ZM7.4,27.3h2.4v2.4h-2.4v-2.4Z"/>
  <path class="st0" d="M15.7,41.4h4.7c.6,0,1.2-.5,1.2-1.2v-4.7c0-.6-.5-1.2-1.2-1.2h-4.7c-.6,0-1.2.5-1.2,1.2v4.7c0,.6.5,1.2,1.2,1.2ZM16.8,36.7h2.4v2.4h-2.4v-2.4Z"/>
  <path class="st0" d="M10.9,41.4c.6,0,1.2-.5,1.2-1.2v-4.7c0-.6-.5-1.2-1.2-1.2h-4.7c-.6,0-1.2.5-1.2,1.2v4.7c0,.6.5,1.2,1.2,1.2h4.7ZM7.4,36.7h2.4v2.4h-2.4v-2.4Z"/>
</svg>