<?xml version="1.0" encoding="UTF-8"?>
<svg id="Layer_1" xmlns="http://www.w3.org/2000/svg" version="1.1" viewBox="0 0 80 80">
  <!-- Generator: Adobe Illustrator 29.0.0, SVG Export Plug-In . SVG Version: 2.1.0 Build 186)  -->
  <defs>
    <style>
      .st0 {
        fill: #1c2e5d;
      }
    </style>
  </defs>
  <path class="st0" d="M49.5,37c-.4.4-.9.6-1.5.6s-1.1-.2-1.5-.6c-.5-.5-1.2-.5-1.7,0-.5.5-.5,1.2,0,1.7.8.8,2,1.3,3.1,1.3s2.3-.5,3.1-1.3c.5-.5.5-1.2,0-1.7-.5-.5-1.2-.5-1.7,0Z"/>
  <path class="st0" d="M69.7,56.1s0,0,0,0l.6-9c0-.9-.3-1.8-.9-2.4-.7-.7-1.6-1.1-2.6-1.1h-6.1c2.3-2.3,4-5.1,5-7.8,3.2-.3,6.3-2.3,6.3-5.7v-1.5c0-2.2-1.8-3.9-3.9-3.9h-1.4v-6c0-3.5-.5-6.5-1.5-9-.2-.6-.9-.9-1.5-.7-.6.2-.9.9-.7,1.5.9,2.2,1.3,5,1.3,8.1v1.7c-2.1-2.3-5.5-3.8-10.1-4.3-2-.2-3.4,0-4.6.4-1.8.4-3.3.7-6.6-.4-.5-.2-1-.3-1.5-.4-3.4-2.6-3.9-8.3-2-11.6,2.2-1,4.8-1.4,8-1.4h1.4c5.2,0,9.1,1.3,11.6,4,.4.5,1.2.5,1.7,0,.5-.4.5-1.2,0-1.7C59.1,1.6,54.6,0,48.7,0h-1.4C44.1,0,41.3.5,38.9,1.4c-.4.1-1.5.7-1.8.8-1.3.8-2.5,1.7-3.5,2.8-2.7,3.1-4.1,7.6-4.1,13.4v6h-1.5c-2.2,0-3.9,1.8-3.9,3.9v1.5c0,3.4,3,5.4,6.3,5.7,1,2.7,2.7,5.5,5,7.8h-5.3c-2.9-3.3-7.2-5.4-12-5.4-8.8,0-16,7.2-16,16s7.2,16,16,16h0v7.3c0,1.4,1.1,2.6,2.6,2.6h54.6c1.4,0,2.6-1.1,2.6-2.6v-7.9c0-6.1-3-11-8.2-13.5ZM69.6,28.5v1.5c0,1.7-1.5,2.8-3.2,3.2.1-.8.2-1.5.2-2.2v-4.1h1.4c.9,0,1.6.7,1.6,1.6ZM31.9,18.5c0-5.2,1.2-9.2,3.5-11.9.2-.3.5-.5.8-.8-.3,1.4-.3,2.8,0,4.3.3,1.9,1,3.7,2,5.1-1.6.3-3,.9-3.9,1.6-.9.6-1.7,1.4-2.3,2.3v-.7ZM26.5,30v-1.5c0-.9.7-1.6,1.6-1.6h1.5v4.1c0,.7,0,1.5.2,2.2-1.8-.4-3.2-1.5-3.2-3.2ZM32.4,34.2s0,0,0,0c-.3-1.1-.5-2.2-.5-3.2v-5.3c0-2.5,1.5-5.3,3.7-6.9,1.3-1,3.6-1.9,6.6-.8,4,1.4,6,.9,7.9.5,1.1-.3,2.2-.5,3.8-.3,4.4.5,9.8,2.3,10.3,7.6v5.2c0,1-.2,2.1-.5,3.1,0,0,0,.1,0,.2-1,3.2-3.3,6.6-6.5,9.2h-18.4c-3.1-2.6-5.5-6-6.5-9.2ZM18.2,67.8c-7.6,0-13.7-6.1-13.7-13.7s6.1-13.7,13.7-13.7,6.8,1.4,9.3,3.6c.6.6,1.2,1.2,1.7,1.8,1.7,2.3,2.8,5.2,2.8,8.3s-1,5.9-2.7,8.2c-.6.9-1.4,1.6-2.2,2.3-1.8,1.5-3.9,2.5-6.3,3-.8.1-1.6.2-2.4.2,0,0,0,0-.1,0ZM20.5,77.4v-7.5c2.4-.4,4.6-1.3,6.6-2.6l.2,3.4h-.2c-1.3,0-2.3,1-2.3,2.3v2.3c0,.8.2,1.6.6,2.3h-4.7c-.1,0-.2,0-.2-.2ZM66.6,77.7H29.5c-1.2,0-2.3-1-2.3-2.3v-2.3h18.1c.6,0,1.2-.5,1.2-1.2s-.5-1.2-1.2-1.2h-15.7l-.3-5.2c3-2.9,4.9-7,4.9-11.5s-.8-5.9-2.3-8.3h34.9c.3,0,.6.1.9.4.1.1.3.4.3.7l-1.5,23.9h-15.7c-.6,0-1.2.5-1.2,1.2s.5,1.2,1.2,1.2h16.8s0,0,0,0,0,0,0,0h1.3v2.3c0,1.2-1,2.3-2.3,2.3h0ZM75.5,77.4c0,.1,0,.2-.2.2h-4.7c.4-.7.6-1.4.6-2.3v-2.3c0-1.3-1-2.3-2.3-2.3h-.2l.8-12.2c5.2,2.9,6,8,6,10.9v7.9Z"/>
  <path class="st0" d="M46.3,30.8v-2c1.2-.4,2.3-.4,3.6,0v2c0,1.4,1.1,2.5,2.5,2.5h4.9c1.4,0,2.5-1.1,2.5-2.5v-5.4c0-1.4-1.1-2.5-2.5-2.5h-4.9c-1.4,0-2.5,1.1-2.5,2.5v.9c-1.2-.3-2.4-.3-3.6,0v-.9c0-1.4-1.1-2.5-2.5-2.5h-4.9c-1.4,0-2.5,1.1-2.5,2.5v5.4c0,1.4,1.1,2.5,2.5,2.5h4.9c1.4,0,2.5-1.1,2.5-2.5ZM52.2,25.4c0,0,0-.2.2-.2h4.9c0,0,.2,0,.2.2v5.4c0,0,0,.2-.2.2h-4.9c0,0-.2,0-.2-.2v-5.4ZM43.9,30.8c0,0,0,.2-.2.2h-4.9c0,0-.2,0-.2-.2v-5.4c0,0,0-.2.2-.2h4.9c0,0,.2,0,.2.2v5.4Z"/>
  <path class="st0" d="M51.9,56.7c0-2.1-1.7-3.9-3.9-3.9s-3.9,1.7-3.9,3.9,1.7,3.9,3.9,3.9,3.9-1.7,3.9-3.9ZM46.5,56.7c0-.8.7-1.5,1.5-1.5s1.5.7,1.5,1.5-.7,1.5-1.5,1.5-1.5-.7-1.5-1.5Z"/>
  <path class="st0" d="M50.5,64.1c0-.6-.5-1.2-1.2-1.2h-2.5c-.6,0-1.2.5-1.2,1.2s.5,1.2,1.2,1.2h2.5c.6,0,1.2-.5,1.2-1.2Z"/>
  <path class="st0" d="M20.4,48.6c.1-.6-.3-1.2-.9-1.4-.6-.1-1.2.3-1.4.9l-2.1,11.5c-.1.6.3,1.2.9,1.4,0,0,.1,0,.2,0,.6,0,1-.4,1.2-1l2.1-11.5Z"/>
  <path class="st0" d="M22.5,58.7c.2.2.5.3.8.3s.6-.1.8-.3l3.5-3.5c.3-.3.4-.7.4-1s-.2-.8-.4-1l-3.5-3.5c-.5-.5-1.2-.5-1.7,0-.5.5-.5,1.2,0,1.7l2.9,2.9-2.9,2.9c-.5.5-.5,1.2,0,1.7Z"/>
  <path class="st0" d="M13.8,49.5c-.5-.5-1.2-.5-1.7,0l-3.5,3.5c-.3.3-.4.7-.4,1s.2.8.4,1l3.5,3.5c.2.2.5.3.8.3s.6-.1.8-.3c.5-.5.5-1.2,0-1.7l-2.9-2.9,2.9-2.9c.5-.5.5-1.2,0-1.7Z"/>
</svg>