<?xml version="1.0" encoding="UTF-8"?>
<svg id="Layer_1" xmlns="http://www.w3.org/2000/svg" version="1.1" viewBox="0 0 80 80">
  <!-- Generator: Adobe Illustrator 29.0.0, SVG Export Plug-In . SVG Version: 2.1.0 Build 186)  -->
  <defs>
    <style>
      .st0 {
        fill: #1c2e5d;
      }
    </style>
  </defs>
  <path class="st0" d="M76.8,31.1h-2c-.4-2.4-2.1-4.3-4.4-4.9l6.4-14.7c.6-1.4.5-2.9-.4-4.1l-1.1-1.6c.4-.6.7-1.3.7-2.1,0-1.9-1.6-3.5-3.5-3.5-2.2,0-3.9,2-3.5,4.2l-4.4,2.7c-1.4-.9-3.2-1.1-4.8-.2l-4.1,2.3c-.3.2-.5.5-.6.8,0,.4,0,.7.3,1l6.2,6.5c.2.2.5.4.8.4s0,0,.1,0c.4,0,.7-.2.9-.5l2.5-4c.8-1.4.9-3,.2-4.4l4-2.5c.6.5,1.4.9,2.3.9s.7,0,1-.1l1,1.6c.4.6.4,1.3.2,1.9l-6.7,15.4c-2.7.3-4.9,2.5-5.3,5.1h-4v-11.7c0-1.9-1.5-3.4-3.4-3.4s-3.4,1.5-3.4,3.4v1.5c-.3-.1-.7-.2-1-.2s-.7,0-1,.2v-1.5c0-1.9-1.5-3.4-3.4-3.4s-1.6.3-2.2.8c-.6-.5-1.4-.8-2.2-.8-1.9,0-3.4,1.5-3.4,3.4v11.7h-12.5v-4.6h7.5c1.6,0,2.8-1.3,2.8-2.8V6.6c0-1.6-1.3-2.8-2.8-2.8H7.9c-1.6,0-2.8,1.3-2.8,2.8v9c0,.6.5,1.2,1.2,1.2s1.2-.5,1.2-1.2V6.6c0-.3.2-.5.5-.5h25.9c.3,0,.5.2.5.5v13.3H6.2c-.6,0-1.2.5-1.2,1.2v2.5c0,1.6,1.3,2.8,2.8,2.8h7.5v4.6H3.2c-1.7,0-3.2,1.4-3.2,3.2v3.8c0,1.7,1.4,3.2,3.2,3.2h1.9v36.4h-1.5c-.6,0-1.2.5-1.2,1.2s.5,1.2,1.2,1.2h9.7c.6,0,1.2-.5,1.2-1.2s-.5-1.2-1.2-1.2h-1.5v-36.4h29.6v14.8c0,2,1.6,3.6,3.6,3.6h23.5v17.9h-1.5c-.6,0-1.2.5-1.2,1.2s.5,1.2,1.2,1.2h9.7c.6,0,1.2-.5,1.2-1.2s-.5-1.2-1.2-1.2h-1.5v-25.6c0-.6-.5-1.2-1.2-1.2s-1.2.5-1.2,1.2v25.6h-1.9v-36.4h1.9v5.3c0,.6.5,1.2,1.2,1.2s1.2-.5,1.2-1.2v-5.3h1.9c1.7,0,3.2-1.4,3.2-3.2v-3.8c0-1.7-1.4-3.2-3.2-3.2ZM64,11.9l-1.7,2.7-4.1-4.3,2.8-1.5c.9-.5,2-.3,2.7.4.7.7.8,1.8.3,2.7ZM71.4,3.6c0-.7.5-1.2,1.2-1.2s1.2.5,1.2,1.2-.5,1.2-1.2,1.2-1.2-.5-1.2-1.2ZM68.8,28.2s0,0,0,0,0,0,0,0c1.8,0,3.2,1.2,3.7,2.8h-7.3c.4-1.6,1.9-2.8,3.7-2.8ZM54.3,19.4c0-.6.5-1,1-1s1,.5,1,1v11.7h-2v-11.7ZM51,23c.6,0,1,.5,1,1v7h-2v-7c0-.6.5-1,1-1ZM46.6,18.3c.6,0,1,.5,1,1v11.7h-2v-11.7c0-.6.5-1,1-1ZM41.2,19.4c0-.6.5-1,1-1s1,.5,1,1v11.7h-2v-11.7ZM7.4,23.6v-1.3h26.9v1.3c0,.3-.2.5-.5.5H7.9c-.3,0-.5-.2-.5-.5ZM17.7,26.4h6.2v4.6h-6.2v-4.6ZM9.3,77.6h-1.9v-36.4h1.9v36.4ZM44.8,57.3c-.7,0-1.3-.6-1.3-1.3v-5.6h24.8v6.9h-23.5ZM68.4,48.1h-24.8v-6.9h24.8v6.9ZM77.7,38.1c0,.4-.4.8-.8.8H3.2c-.4,0-.8-.4-.8-.8v-3.8c0-.4.4-.8.8-.8h73.7c.4,0,.8.4.8.8v3.8Z"/>
  <path class="st0" d="M54.4,45.8h3.1c.6,0,1.2-.5,1.2-1.2s-.5-1.2-1.2-1.2h-3.1c-.6,0-1.2.5-1.2,1.2s.5,1.2,1.2,1.2Z"/>
  <path class="st0" d="M57.5,52.7h-3.1c-.6,0-1.2.5-1.2,1.2s.5,1.2,1.2,1.2h3.1c.6,0,1.2-.5,1.2-1.2s-.5-1.2-1.2-1.2Z"/>
</svg>