<?xml version="1.0" encoding="UTF-8"?>
<svg id="Layer_1" xmlns="http://www.w3.org/2000/svg" version="1.1" viewBox="0 0 80 80">
  <!-- Generator: Adobe Illustrator 29.0.0, SVG Export Plug-In . SVG Version: 2.1.0 Build 186)  -->
  <defs>
    <style>
      .st0 {
        fill: #1c2e5d;
      }
    </style>
  </defs>
  <path class="st0" d="M57.7,48.9c-.5-.5-1.2-.5-1.7,0l-1.9,1.9-1.9-1.9c-.5-.5-1.2-.5-1.7,0-.5.5-.5,1.2,0,1.7l1.9,1.9-1.9,1.9c-.5.5-.5,1.2,0,1.7.2.2.5.3.8.3s.6-.1.8-.3l1.9-1.9,1.9,1.9c.2.2.5.3.8.3s.6-.1.8-.3c.5-.5.5-1.2,0-1.7l-1.9-1.9,1.9-1.9c.5-.5.5-1.2,0-1.7Z"/>
  <path class="st0" d="M49.4,63.1v7.1c0,.6.5,1.2,1.2,1.2h7.1c.6,0,1.2-.5,1.2-1.2v-7.1c0-.6-.5-1.2-1.2-1.2h-7.1c-.6,0-1.2.5-1.2,1.2ZM51.8,64.2h4.7v4.7h-4.7v-4.7Z"/>
  <path class="st0" d="M63.5,48.9v7.1c0,.6.5,1.2,1.2,1.2h7.1c.6,0,1.2-.5,1.2-1.2v-7.1c0-.6-.5-1.2-1.2-1.2h-7.1c-.6,0-1.2.5-1.2,1.2ZM65.9,50.1h4.7v4.7h-4.7v-4.7Z"/>
  <path class="st0" d="M78.8,60.7c.6,0,1.2-.5,1.2-1.2V14.2c0-3.2-2.6-5.9-5.9-5.9h-8.2v-2.4c0-2.6-2.1-4.7-4.7-4.7s-3.9,1.4-4.5,3.4c-.2.6.2,1.3.8,1.5.6.2,1.3-.2,1.5-.8.3-1,1.2-1.7,2.3-1.7s2.4,1.1,2.4,2.4v7.5c0,1.3-1.1,2.4-2.4,2.4s-2.4-1.1-2.4-2.4v-4c0-.6-.5-1.2-1.2-1.2s0,0-.1,0c0,0,0,0-.1,0H23.4v-2.4c0-2.6-2.1-4.7-4.7-4.7s-4.7,2.1-4.7,4.7v2.4H5.9c-3.2,0-5.9,2.6-5.9,5.9v58.6c0,3.2,2.6,5.9,5.9,5.9h68.2c3.2,0,5.9-2.6,5.9-5.9v-6.6c0-.6-.5-1.2-1.2-1.2s-1.2.5-1.2,1.2v6.6c0,1.9-1.6,3.5-3.5,3.5H5.9c-1.9,0-3.5-1.6-3.5-3.5V29.5h3.9c.6,0,1.2-.5,1.2-1.2s-.5-1.2-1.2-1.2h-3.9v-12.9c0-1.9,1.6-3.5,3.5-3.5h8.1v2.8c0,2.6,2.1,4.7,4.7,4.7s4.7-2.1,4.7-4.7v-2.8h33.1v2.8c0,2.6,2.1,4.7,4.7,4.7s4.7-2.1,4.7-4.7v-2.8h8.2c1.9,0,3.5,1.6,3.5,3.5v12.9H12.7c-.6,0-1.2.5-1.2,1.2s.5,1.2,1.2,1.2h64.9v30c0,.6.5,1.2,1.2,1.2ZM21,13.5c0,1.3-1.1,2.4-2.4,2.4s-2.4-1.1-2.4-2.4v-7.5c0-1.3,1.1-2.4,2.4-2.4s2.4,1.1,2.4,2.4v7.5Z"/>
  <path class="st0" d="M59.2,35.1c-.5-.5-1.2-.5-1.7,0l-4.2,4.2-1.9-1.9c-.5-.5-1.2-.5-1.7,0-.5.5-.5,1.2,0,1.7l2.8,2.8c.2.2.5.3.8.3s.6-.1.8-.3l5-5c.5-.5.5-1.2,0-1.7Z"/>
  <path class="st0" d="M71.8,34.8c-.5-.5-1.2-.5-1.7,0l-1.9,1.9-1.9-1.9c-.5-.5-1.2-.5-1.7,0-.5.5-.5,1.2,0,1.7l1.9,1.9-1.9,1.9c-.5.5-.5,1.2,0,1.7.2.2.5.3.8.3s.6-.1.8-.3l1.9-1.9,1.9,1.9c.2.2.5.3.8.3s.6-.1.8-.3c.5-.5.5-1.2,0-1.7l-1.9-1.9,1.9-1.9c.5-.5.5-1.2,0-1.7Z"/>
  <path class="st0" d="M16.8,49.1c-.5-.5-1.2-.5-1.7,0l-4.2,4.2-1.9-1.9c-.5-.5-1.2-.5-1.7,0-.5.5-.5,1.2,0,1.7l2.8,2.8c.2.2.5.3.8.3s.6-.1.8-.3l5-5c.5-.5.5-1.2,0-1.7Z"/>
  <path class="st0" d="M8.2,61.9c-.6,0-1.2.5-1.2,1.2v7.1c0,.6.5,1.2,1.2,1.2h7.1c.6,0,1.2-.5,1.2-1.2v-7.1c0-.6-.5-1.2-1.2-1.2h-7.1ZM14.1,68.9h-4.7v-4.7h4.7v4.7Z"/>
  <path class="st0" d="M16.5,42v-7.1c0-.6-.5-1.2-1.2-1.2h-7.1c-.6,0-1.2.5-1.2,1.2v7.1c0,.6.5,1.2,1.2,1.2h7.1c.6,0,1.2-.5,1.2-1.2ZM14.1,40.8h-4.7v-4.7h4.7v4.7Z"/>
  <path class="st0" d="M30.9,35.1c-.5-.5-1.2-.5-1.7,0l-4.2,4.2-1.9-1.9c-.5-.5-1.2-.5-1.7,0-.5.5-.5,1.2,0,1.7l2.8,2.8c.2.2.5.3.8.3s.6-.1.8-.3l5-5c.5-.5.5-1.2,0-1.7Z"/>
  <path class="st0" d="M22.4,61.9c-.6,0-1.2.5-1.2,1.2v7.1c0,.6.5,1.2,1.2,1.2h7.1c.6,0,1.2-.5,1.2-1.2v-7.1c0-.6-.5-1.2-1.2-1.2h-7.1ZM28.2,68.9h-4.7v-4.7h4.7v4.7Z"/>
  <path class="st0" d="M45.1,35.1c-.5-.5-1.2-.5-1.7,0l-4.2,4.2-1.9-1.9c-.5-.5-1.2-.5-1.7,0-.5.5-.5,1.2,0,1.7l2.8,2.8c.2.2.5.3.8.3s.6-.1.8-.3l5-5c.5-.5.5-1.2,0-1.7Z"/>
  <path class="st0" d="M45.1,49.1c-.5-.5-1.2-.5-1.7,0l-4.2,4.2-1.9-1.9c-.5-.5-1.2-.5-1.7,0-.5.5-.5,1.2,0,1.7l2.8,2.8c.2.2.5.3.8.3s.6-.1.8-.3l5-5c.5-.5.5-1.2,0-1.7Z"/>
  <path class="st0" d="M36.5,61.9c-.6,0-1.2.5-1.2,1.2v7.1c0,.6.5,1.2,1.2,1.2h7.1c.6,0,1.2-.5,1.2-1.2v-7.1c0-.6-.5-1.2-1.2-1.2h-7.1ZM42.4,68.9h-4.7v-4.7h4.7v4.7Z"/>
  <path class="st0" d="M30.9,49.1c-.5-.5-1.2-.5-1.7,0l-4.2,4.2-1.9-1.9c-.5-.5-1.2-.5-1.7,0-.5.5-.5,1.2,0,1.7l2.8,2.8c.2.2.5.3.8.3s.6-.1.8-.3l5-5c.5-.5.5-1.2,0-1.7Z"/>
</svg>