<?xml version="1.0" encoding="UTF-8"?>
<svg id="Layer_1" xmlns="http://www.w3.org/2000/svg" version="1.1" viewBox="0 0 80 80">
  <!-- Generator: Adobe Illustrator 29.0.0, SVG Export Plug-In . SVG Version: 2.1.0 Build 186)  -->
  <defs>
    <style>
      .st0 {
        fill: #1c2e5d;
      }
    </style>
  </defs>
  <path class="st0" d="M69.1,67h0v-4.3c0-.6-.5-1.2-1.2-1.2s-1.2.5-1.2,1.2v4l-2-.3-1.9-3.9c-.7-1.4-2.8-1.4-3.5,0l-.3.6v-4.1c0-.6-.5-1.2-1.2-1.2s-1.2.5-1.2,1.2v7.5l-3.6.5c-1.6.2-2.2,2.2-1.1,3.3l1.5,1.5h-5.9c.5-.5.2-.2,1.5-1.5h0c1.2-1.1.5-3.1-1.1-3.3l-2.6-.4-2-11.5,1.1-1.7.6.4c1.1.8,2.6.4,3.1-.8h0s4-8.1,4-8.1l9.2,3.6c.3.1,5.2,2.3,5.2,8.1v.5c0,.6.5,1.2,1.2,1.2s1.2-.5,1.2-1.2v-.5c0-7.4-6.4-10.2-6.6-10.3,0,0,0,0,0,0l-15.2-5.9v-3.7c2.4-1.9,4.1-4.7,4.5-7.9,2.9-.2,5.1-2.5,5.1-5.3s-.5-2.5-1.3-3.5v-4.7C55.5,7.9,50.2,1.4,42.8,0c-.6-.1-1.3.3-1.4.9-.1.6.3,1.3.9,1.4,6.2,1.2,10.8,6.7,10.8,13.1v3.2c-.4-.1-.9-.2-1.3-.3,0-1.3.1-.9-4-5.3h0c-.7-.8-1.9-.9-2.8-.3-4.4,2.8-9.6,4.3-14.6,4-.8,0-1.3,0-1.9.6-.3.3-.6.7-.6,1.1-.4,0-.9.2-1.4.3v-3.3c0-6.4,4.5-11.9,10.8-13.1.6-.1,1.1-.7.9-1.4-.1-.6-.7-1.1-1.4-.9-7.3,1.4-12.7,7.9-12.7,15.4v4.9c-.8.9-1.3,2.1-1.3,3.4,0,2.8,2.2,5.1,5.1,5.3.4,3.2,2.1,6.1,4.8,8.1v3.5l-15.2,5.9s0,0,0,0c-.3.1-6.6,2.8-6.6,10.3v10.4h0c-.7.1-1.3.6-1.6,1.3-.2.7,0,1.5.5,2l3.1,3.1-.7,4.3c-.1.7.2,1.5.8,1.9.6.4,1.4.5,2,.1l3.9-2,3.9,2c.7.3,1.4.3,2-.1.6-.4.9-1.2.8-1.9l-.6-3.5h8.9l-.6,3.5c-.3,1.6,1.4,2.8,2.8,2.1l3.9-2,3.9,2c.7.3,1.4.3,2-.1.6-.4.9-1.2.8-1.9l-.6-3.5h8.9l-.6,3.5c-.3,1.6,1.4,2.8,2.8,2.1l3.9-2,3.9,2c1.4.8,3.1-.5,2.8-2.1l-.7-4.3,3.1-3.1c1.2-1.1.5-3.1-1.1-3.3ZM51.8,20.7c1.6.2,2.6,1.5,2.6,2.9s-1.1,2.7-2.6,2.9v-5.9ZM27.9,26.6c-1.6-.2-2.6-1.5-2.6-2.9s1.2-2.6,2.6-2.9v5.8ZM50.2,44.1l-3.8,7.7c-.5-.3-4.3-3-4.7-3.3l4.7-5.8,3.8,1.5ZM41.6,53.7h-3.3l-1-1.6,2.7-1.9,2.7,1.9-1,1.6ZM42.7,64.3l-.9-1.9c-.7-1.4-2.8-1.4-3.5,0l-.9,1.9,1.4-8.3h2.5l1.4,8.3ZM35.1,40.9v-2.6c1.5.6,3.2,1,4.9,1s3.4-.4,4.8-1v2.6l-4.9,6-4.9-6ZM30.3,27.4v-8.4c5.4.3,11.2-1.2,16-4.3,1.9,2,2.9,3.1,3.2,3.5v9.3c0,5.2-4.2,9.5-9.5,9.5-5.8,0-9.8-4.4-9.8-9.5ZM33.6,42.7l4.7,5.8c-1.2.8-4.3,3.1-4.7,3.3l-3.8-7.7,3.8-1.5ZM23.1,71.9c-.5.4-.7,1.1-.6,1.7l.6,3.7-3.3-1.8c-.6-.3-1.2-.3-1.8,0l-3.3,1.8.6-3.7c.1-.6-.1-1.3-.6-1.7l-2.7-2.6,3.7-.5c.6,0,1.2-.5,1.5-1.1l1.7-3.4c1.8,3.6,1.7,3.4,1.8,3.6.3.5.8.8,1.3.9l3.7.5-2.7,2.6ZM26.5,71.8l1.5-1.5h0c1.2-1.1.5-3.1-1.1-3.3l-3.6-.5v-7.5c0-.6-.5-1.2-1.2-1.2s-1.2.5-1.2,1.2v4.1l-.3-.6c-.7-1.4-2.8-1.5-3.5,0l-1.9,3.9-2,.3v-10c0-5.8,4.9-8,5.2-8.1l9.2-3.6,4,8.1c.6,1.2,2.1,1.5,3.1.8l.6-.4,1.1,1.7-2,11.5-2.6.4c-1.6.2-2.2,2.2-1.1,3.3l1.5,1.5h-5.9ZM44.2,71.9c-.5.4-.7,1.1-.6,1.7l.6,3.7-3.3-1.8c-.6-.3-1.2-.3-1.8,0l-3.3,1.8.6-3.7c.1-.7-.1-1.3-.6-1.7l-2.7-2.6,3.7-.5c.6,0,1.2-.5,1.5-1.1l1.7-3.4,1.7,3.4c.3.6.9,1,1.5,1.1l3.7.5-2.7,2.6ZM65.3,71.9c-.5.4-.7,1.1-.6,1.7l.6,3.7-3.3-1.8c-.6-.3-1.2-.3-1.8,0l-3.3,1.8.6-3.7c.1-.6-.1-1.3-.6-1.7l-2.7-2.6,3.7-.5c.6,0,1.2-.5,1.5-1.1l1.7-3.4,1.7,3.4c0,0,0,.1.1.2.3.5.8.8,1.3.9l3.7.5-2.7,2.6Z"/>
</svg>