<?xml version="1.0" encoding="UTF-8"?>
<svg id="Layer_1" xmlns="http://www.w3.org/2000/svg" version="1.1" viewBox="0 0 80 80">
  <!-- Generator: Adobe Illustrator 29.0.0, SVG Export Plug-In . SVG Version: 2.1.0 Build 186)  -->
  <defs>
    <style>
      .st0 {
        fill: #1c2e5d;
      }
    </style>
  </defs>
  <path class="st0" d="M60.6,6.6c.6,0,1.2-.5,1.2-1.2h0c0-1.6-2.3-1.6-2.3,0h0c0,.7.5,1.2,1.2,1.2Z"/>
  <path class="st0" d="M54.6,6.7c-.3-.6-1-.7-1.6-.4-.6.3-.7,1-.4,1.6.4.5,1,.8,1.6.5.6-.3.7-1,.4-1.6h0Z"/>
  <path class="st0" d="M49.1,11.4h0c-.6-.3-1.3-.1-1.6.4-.3.6-.1,1.3.4,1.6.6.3,1.3.2,1.6-.4.3-.6.1-1.3-.4-1.6Z"/>
  <path class="st0" d="M46.7,18.2c-.6,0-1.2.5-1.2,1.2,0,.7.5,1.2,1.2,1.2,1.5,0,1.5-2.3,0-2.3Z"/>
  <path class="st0" d="M72,27.3c.6.3,1.3.2,1.6-.4.3-.6.1-1.3-.4-1.6h0c-.6-.3-1.3-.1-1.6.4-.3.6-.1,1.3.4,1.6Z"/>
  <path class="st0" d="M73.3,19.4c0,.6.5,1.2,1.2,1.2h0c1.5,0,1.5-2.3,0-2.3h0c-.6,0-1.2.5-1.2,1.2Z"/>
  <path class="st0" d="M72.6,13.6c.2,0,.4,0,.6-.2.6-.3.7-1,.4-1.6-.3-.6-1-.7-1.6-.4h0c-.6.3-.7,1-.4,1.6.2.4.6.6,1,.6Z"/>
  <path class="st0" d="M66.9,8.3c.6.3,1.2,0,1.6-.5.3-.6.1-1.3-.4-1.6-.6-.3-1.3-.1-1.6.4h0c-.3.6-.1,1.3.4,1.6Z"/>
  <path class="st0" d="M67.1,19.4c0-.6-.5-1.2-1.2-1.2h-4.1v-7.7c0-1.6-2.3-1.6-2.3,0v8.9c0,.6.5,1.2,1.2,1.2h5.3c.6,0,1.2-.5,1.2-1.2Z"/>
  <path class="st0" d="M15.7,38.5l3.5-3.5c1-1-.6-2.7-1.7-1.7l-3.5,3.5c-1.2,1.2.5,2.8,1.7,1.7Z"/>
  <path class="st0" d="M24.6,33.3l-10.5,10.5c-1.1,1.1.6,2.7,1.7,1.7l10.5-10.5c1-1-.6-2.7-1.7-1.7Z"/>
  <path class="st0" d="M79.1,44.7c-.4-1.7-2.6-.5-3.5,0-.7-3.9-1.9-7.3-3-10C87,23.4,78.9,0,60.6,0c-12.4-.2-22,12.1-18.9,24H9c-2.3,0-4.3,1.9-4.3,4.3v6c0,.6.5,1.2,1.2,1.2s1.2-.5,1.2-1.2v-6c0-1.1.9-1.9,1.9-1.9h50.1c1.1,0,1.9.9,1.9,1.9v10.6s0,0,0,.1c-1.1-1.2-2-1.8-2.3-2v-7.2c0-.6-.5-1.2-1.2-1.2H10.5c-.6,0-1.2.5-1.2,1.2v28h-2.3v-16.9c0-.6-.5-1.2-1.2-1.2s-1.2.5-1.2,1.2v16.9h-1.3c-1.9,0-3.5,1.6-3.5,3.5s1.6,3.5,3.5,3.5h51c.9,1.8,1.9,3.1,2.4,3.6v4.1c0,4.2,3.4,7.6,7.6,7.6h3.4c4.2,0,7.6-3.4,7.6-7.6v-4.1c1.2-1.5,2.2-3.3,3-5.2.5-1.4-1.6-2.3-2.2-.8-.6,1.7-1.5,3.2-2.5,4.5h-7.6c-.4-8.3,2.9-17,11.1-20.2.4,1.9.9,5.8.4,10.1-.2,1.5,2.2,1.8,2.3.3.7-6.4-.7-11.9-.7-12.2ZM59.1,24h-14.9c-3.2-10.6,5.3-21.9,16.4-21.7,15.9,0,23.1,20,10.9,30.1-1.6-3.1-3-4.9-3.1-5-.5-.6-1.4-.6-1.9,0-1.2,1.7-2.3,3.6-3.2,5.5v-4.7c0-2.3-1.9-4.3-4.3-4.3ZM11.7,31h44.7v7.5c-2.2,4.1-3.6,8.1-4.1,12-.3,2.5-.3,5,0,7.3H11.7v-26.8ZM3.5,62.4c-1.5,0-1.5-2.2,0-2.2h49.3c.2.8.4,1.5.7,2.2H3.5ZM73,69.1v3.3c0,2.9-2.3,5.2-5.2,5.2h-3.4c-2.9,0-5.2-2.3-5.2-5.2v-3.3h13.8ZM64.6,58c-1,3.7-1,7-.9,8.8h-5.1c-5.6-6.8-5.3-17.9-.2-27,1.9,1.7,5.8,6,7.9,13.8-.7,1.4-1.2,2.9-1.7,4.5ZM67.9,50.8c-1.4-4.3-3.4-7.5-5.1-9.7,1.1-3.8,2.7-7.5,4.8-10.9,1.5,2.4,4.6,7.9,5.9,15.5-2.2,1.3-4,3-5.5,5.1Z"/>
</svg>