<?xml version="1.0" encoding="UTF-8"?>
<svg id="Layer_1" xmlns="http://www.w3.org/2000/svg" version="1.1" viewBox="0 0 80 80">
  <!-- Generator: Adobe Illustrator 29.0.0, SVG Export Plug-In . SVG Version: 2.1.0 Build 186)  -->
  <defs>
    <style>
      .st0 {
        fill: #1c2e5d;
      }
    </style>
  </defs>
  <path class="st0" d="M77.2,0h-5.4c-.6,0-1.2.5-1.2,1.2s.5,1.2,1.2,1.2h5.4c.2,0,.4.2.4.4v19.3h-6.1c-1.4,0-2.6,1.2-2.6,2.6v.2c0,.7.3,1.3.8,1.8.5.5.8,1.2.8,2s-.3,1.5-.9,2.1c-.6.5-1.4.8-2.2.7-1.3-.1-2.3-1.1-2.4-2.4-.1-.9.2-1.7.8-2.3.5-.5.8-1.2.8-1.8v-.2c0-1.4-1.2-2.6-2.6-2.6h-6.1v-6.1c0-.1.1-.2.2-.2h.2c0,0,.1,0,.2,0,1.1,1.1,2.7,1.6,4.2,1.4,2.3-.3,4.2-2.2,4.4-4.5.2-1.5-.3-2.9-1.3-4-1-1.1-2.4-1.7-3.8-1.7s-2.6.5-3.6,1.5c0,0-.1,0-.2,0h-.2c-.1,0-.2-.1-.2-.2V2.3h8.4c.6,0,1.2-.5,1.2-1.2S67,0,66.3,0h-9.6c-.6,0-1.2.5-1.2,1.2v7.3c0,1.4,1.2,2.6,2.6,2.6h.2c.7,0,1.3-.3,1.8-.8.5-.5,1.2-.8,2-.8s1.5.3,2.1.9c.5.6.8,1.4.7,2.2-.1,1.3-1.1,2.3-2.4,2.4-.9.1-1.7-.2-2.3-.8-.5-.5-1.2-.8-1.8-.8h-.2c-1.4,0-2.6,1.2-2.6,2.6v7.3c0,.6.5,1.2,1.2,1.2h7.3c.1,0,.2.1.2.2v.2c0,0,0,.1,0,.2-1.1,1.1-1.6,2.7-1.4,4.2.3,2.3,2.2,4.2,4.5,4.4.2,0,.4,0,.6,0,1.3,0,2.5-.5,3.4-1.3,1.1-1,1.7-2.4,1.7-3.8s-.5-2.6-1.5-3.6c0,0,0-.1,0-.2v-.2c0-.1.1-.2.2-.2h7.3c.6,0,1.2-.5,1.2-1.2V2.8C80,1.2,78.8,0,77.2,0Z"/>
  <path class="st0" d="M78.8,55.6h-7.3c-1.4,0-2.6,1.2-2.6,2.6v.2c0,.7.3,1.3.8,1.8.5.5.8,1.2.8,2s-.3,1.5-.9,2.1c-.6.5-1.4.8-2.2.7-1.3-.1-2.3-1.1-2.4-2.4-.1-.9.2-1.7.8-2.3.5-.5.8-1.2.8-1.8v-.2c0-1.4-1.2-2.6-2.6-2.6h-7.3c-.6,0-1.2.5-1.2,1.2v7.3c0,.1-.1.2-.2.2h-.2c0,0-.1,0-.2,0-1.1-1.1-2.7-1.6-4.2-1.4-2.3.3-4.2,2.2-4.4,4.5-.2,1.5.3,2.9,1.3,4,1,1.1,2.4,1.7,3.8,1.7s2.6-.5,3.6-1.5c0,0,.1,0,.2,0h.4v7.5c0,.6.5,1.2,1.2,1.2h20.5c1.5,0,2.8-1.2,2.8-2.8v-20.5c0-.6-.5-1.2-1.2-1.2ZM77.7,77.2c0,.2-.2.4-.4.4h-19.3v-7.5c0-.6-.5-1.2-1.2-1.2h-1.6c-.7,0-1.3.3-1.8.8-.5.5-1.2.8-2,.8s-1.5-.3-2.1-.9c-.5-.6-.8-1.4-.7-2.2.1-1.3,1.1-2.3,2.4-2.4.9-.1,1.7.2,2.3.8.5.5,1.2.8,1.8.8h.2c1.4,0,2.6-1.2,2.6-2.6v-6.1h6.1c.1,0,.2.1.2.2v.2c0,0,0,.1,0,.2-1.1,1.1-1.6,2.7-1.4,4.2.3,2.3,2.2,4.2,4.5,4.4,1.5.2,2.9-.3,4-1.3,1.1-1,1.7-2.4,1.7-3.8s-.5-2.6-1.5-3.6c0,0,0-.1,0-.2v-.2c0-.1.1-.2.2-.2h6.1v19.3Z"/>
  <path class="st0" d="M23.3,55.6h-7.3c-.1,0-.2-.1-.2-.2v-.2c0,0,0-.1,0-.2,1.1-1.1,1.6-2.7,1.4-4.2-.3-2.3-2.2-4.2-4.5-4.4-1.5-.2-2.9.3-4,1.3-1.1,1-1.7,2.4-1.7,3.8s.5,2.6,1.5,3.6c0,0,0,.1,0,.2v.2c0,.1-.1.2-.2.2H1.2c-.6,0-1.2.5-1.2,1.2v20.5c0,1.5,1.2,2.8,2.8,2.8h2.6c.6,0,1.2-.5,1.2-1.2s-.5-1.2-1.2-1.2h-2.6c-.2,0-.4-.2-.4-.4v-19.3h6.1c1.4,0,2.6-1.2,2.6-2.6v-.2c0-.7-.3-1.3-.8-1.8-.5-.5-.8-1.2-.8-2s.3-1.5.9-2.1c.6-.5,1.4-.8,2.2-.7,1.3.1,2.3,1.1,2.4,2.4.1.9-.2,1.7-.8,2.3-.5.5-.8,1.2-.8,1.8v.2c0,1.4,1.2,2.6,2.6,2.6h6.1v6.1c0,.1-.1.2-.2.2h-.2c0,0-.1,0-.2,0-1.1-1.1-2.7-1.6-4.2-1.4-2.3.3-4.2,2.2-4.4,4.5-.2,1.5.3,2.9,1.3,4,1,1.1,2.4,1.7,3.8,1.7s2.6-.5,3.6-1.5c0,0,.1,0,.2,0h.2c.1,0,.2.1.2.2v6.1h-11.3c-.6,0-1.2.5-1.2,1.2s.5,1.2,1.2,1.2h12.4c.6,0,1.2-.5,1.2-1.2v-7.3c0-1.4-1.2-2.6-2.6-2.6h-.2c-.7,0-1.3.3-1.8.8-.5.5-1.2.8-2,.8s-1.5-.3-2.1-.9c-.5-.6-.8-1.4-.7-2.2.1-1.3,1.1-2.3,2.4-2.4.9-.1,1.7.2,2.3.8.5.5,1.2.8,1.8.8h.2c1.4,0,2.6-1.2,2.6-2.6v-7.3c0-.6-.5-1.2-1.2-1.2Z"/>
  <path class="st0" d="M1.2,24.4h7.3c1.4,0,2.6-1.2,2.6-2.6v-.2c0-.7-.3-1.3-.8-1.8-.5-.5-.8-1.2-.8-2s.3-1.5.9-2.1c.6-.5,1.4-.8,2.2-.7,1.3.1,2.3,1.1,2.4,2.4.1.9-.2,1.7-.8,2.3-.5.5-.8,1.2-.8,1.8v.2c0,1.4,1.2,2.6,2.6,2.6h7.3c.6,0,1.2-.5,1.2-1.2v-7.3c0-.1.1-.2.2-.2h.2c0,0,.1,0,.2,0,1.1,1.1,2.7,1.6,4.2,1.4,2.3-.3,4.2-2.2,4.4-4.5.2-1.5-.3-2.9-1.3-4-1-1.1-2.4-1.7-3.8-1.7s-2.6.5-3.6,1.5c0,0-.1,0-.2,0h-.2c-.1,0-.2-.1-.2-.2V1.2C24.4.5,23.9,0,23.3,0H2.8C1.2,0,0,1.2,0,2.8v20.5c0,.6.5,1.2,1.2,1.2ZM2.3,2.8c0-.2.2-.4.4-.4h19.3v6.1c0,1.4,1.2,2.6,2.6,2.6h.2c.7,0,1.3-.3,1.8-.8.5-.5,1.2-.8,2-.8s1.5.3,2.1.9c.5.6.8,1.4.7,2.2-.1,1.3-1.1,2.3-2.4,2.4-.9.1-1.7-.2-2.3-.8-.5-.5-1.2-.8-1.8-.8h-.2c-1.4,0-2.6,1.2-2.6,2.6v6.1h-6.1c-.1,0-.2-.1-.2-.2v-.2c0,0,0-.1,0-.2,1.1-1.1,1.6-2.7,1.4-4.2-.3-2.3-2.2-4.2-4.5-4.4-1.5-.2-2.9.3-4,1.3-1.1,1-1.7,2.4-1.7,3.8s.5,2.6,1.5,3.6c0,0,0,.1,0,.2v.2c0,.1-.1.2-.2.2H2.3V2.8Z"/>
  <path class="st0" d="M37.3,13.6h.9c.6,0,1.2-.5,1.2-1.2s-.5-1.2-1.2-1.2h-.9c-.6,0-1.2.5-1.2,1.2s.5,1.2,1.2,1.2Z"/>
  <path class="st0" d="M43.5,13.6h2.3c.6,0,1.2-.5,1.2-1.2s-.5-1.2-1.2-1.2h-2.3c-.6,0-1.2.5-1.2,1.2s.5,1.2,1.2,1.2Z"/>
  <path class="st0" d="M51.1,13.6h.9c.6,0,1.2-.5,1.2-1.2s-.5-1.2-1.2-1.2h-.9c-.6,0-1.2.5-1.2,1.2s.5,1.2,1.2,1.2Z"/>
  <path class="st0" d="M67.6,39.4c.6,0,1.2-.5,1.2-1.2v-.9c0-.6-.5-1.2-1.2-1.2s-1.2.5-1.2,1.2v.9c0,.6.5,1.2,1.2,1.2Z"/>
  <path class="st0" d="M66.4,45.8c0,.6.5,1.2,1.2,1.2s1.2-.5,1.2-1.2v-2.3c0-.6-.5-1.2-1.2-1.2s-1.2.5-1.2,1.2v2.3Z"/>
  <path class="st0" d="M66.4,52c0,.6.5,1.2,1.2,1.2s1.2-.5,1.2-1.2v-.9c0-.6-.5-1.2-1.2-1.2s-1.2.5-1.2,1.2v.9Z"/>
  <path class="st0" d="M42.7,66.4h-.9c-.6,0-1.2.5-1.2,1.2s.5,1.2,1.2,1.2h.9c.6,0,1.2-.5,1.2-1.2s-.5-1.2-1.2-1.2Z"/>
  <path class="st0" d="M36.5,66.4h-2.3c-.6,0-1.2.5-1.2,1.2s.5,1.2,1.2,1.2h2.3c.6,0,1.2-.5,1.2-1.2s-.5-1.2-1.2-1.2Z"/>
  <path class="st0" d="M28.9,66.4h-.9c-.6,0-1.2.5-1.2,1.2s.5,1.2,1.2,1.2h.9c.6,0,1.2-.5,1.2-1.2s-.5-1.2-1.2-1.2Z"/>
  <path class="st0" d="M12.4,40.6c-.6,0-1.2.5-1.2,1.2v.9c0,.6.5,1.2,1.2,1.2s1.2-.5,1.2-1.2v-.9c0-.6-.5-1.2-1.2-1.2Z"/>
  <path class="st0" d="M13.6,34.2c0-.6-.5-1.2-1.2-1.2s-1.2.5-1.2,1.2v2.3c0,.6.5,1.2,1.2,1.2s1.2-.5,1.2-1.2v-2.3Z"/>
  <path class="st0" d="M13.6,28c0-.6-.5-1.2-1.2-1.2s-1.2.5-1.2,1.2v.9c0,.6.5,1.2,1.2,1.2s1.2-.5,1.2-1.2v-.9Z"/>
  <path class="st0" d="M48.8,51.1l2.5,1.4c.7.4,1.4.5,2.2.3.7-.2,1.3-.7,1.7-1.3l2.3-4c.4-.7.5-1.4.3-2.2-.2-.7-.7-1.3-1.3-1.7l-2.5-1.4c-.2,0-.3-.3-.2-.5,0-.5,0-1.1,0-1.6s0-1.1,0-1.6c0-.2,0-.4.2-.5l2.5-1.4c.7-.4,1.1-1,1.3-1.7.2-.7,0-1.5-.3-2.2l-2.3-4c-.4-.7-1-1.1-1.7-1.3-.7-.2-1.5,0-2.2.3l-2.5,1.4c-.2,0-.4,0-.5,0-.9-.6-1.8-1.2-2.8-1.6-.2,0-.3-.3-.3-.5v-2.8c0-1.6-1.3-2.8-2.8-2.8h-4.7c-1.6,0-2.8,1.3-2.8,2.8v2.8c0,.2-.1.4-.3.5-1,.4-1.9,1-2.8,1.6-.2.1-.4.1-.5,0l-2.5-1.4c-.7-.4-1.4-.5-2.2-.3-.7.2-1.3.7-1.7,1.3l-2.3,4c-.4.7-.5,1.4-.3,2.2.2.7.7,1.3,1.3,1.7l2.5,1.4c.2,0,.3.3.2.5,0,.5,0,1.1,0,1.6s0,1.1,0,1.6c0,.2,0,.4-.2.5l-2.5,1.4c-.7.4-1.1,1-1.3,1.7-.2.7,0,1.5.3,2.2l2.3,4c.4.7,1,1.1,1.7,1.3.7.2,1.5,0,2.2-.3l2.5-1.4c.2,0,.4,0,.5,0,.9.6,1.8,1.2,2.8,1.6.2,0,.3.3.3.5v2.8c0,1.6,1.3,2.8,2.8,2.8h4.7c1.6,0,2.8-1.3,2.8-2.8v-2.8c0-.2.1-.4.3-.5,1-.4,1.9-1,2.8-1.6.2-.1.4-.1.5,0ZM44.6,50.6c-1.1.5-1.7,1.5-1.7,2.6v2.8c0,.3-.2.5-.5.5h-4.7c-.3,0-.5-.2-.5-.5v-2.8c0-1.1-.7-2.2-1.7-2.6-.8-.4-1.6-.8-2.3-1.3-.5-.4-1.1-.6-1.7-.6s-1,.1-1.4.4l-2.5,1.4c-.2,0-.3,0-.4,0,0,0-.2,0-.3-.2l-2.3-4c0-.2,0-.3,0-.4,0,0,0-.2.2-.3l2.5-1.4c1-.6,1.5-1.7,1.4-2.8,0-.4,0-.9,0-1.3s0-.9,0-1.3c.1-1.1-.4-2.2-1.4-2.8l-2.5-1.4c-.2,0-.2-.2-.2-.3,0,0,0-.2,0-.4l2.3-4c0-.2.2-.2.3-.2,0,0,.2,0,.4,0l2.5,1.4c1,.6,2.2.5,3.1-.2.7-.5,1.5-1,2.3-1.3,1.1-.5,1.7-1.5,1.7-2.6v-2.8c0-.3.2-.5.5-.5h4.7c.3,0,.5.2.5.5v2.8c0,1.1.7,2.2,1.7,2.6.8.4,1.6.8,2.3,1.3.9.7,2.1.8,3.1.2l2.5-1.4c.2,0,.3,0,.4,0,0,0,.2,0,.3.2l2.3,4c0,.2,0,.3,0,.4,0,0,0,.2-.2.3l-2.5,1.4c-1,.6-1.5,1.7-1.4,2.8,0,.4,0,.9,0,1.3s0,.9,0,1.3c-.1,1.1.4,2.2,1.4,2.8l2.5,1.4c.2,0,.2.2.2.3,0,0,0,.2,0,.4l-2.3,4c0,.2-.2.2-.3.2,0,0-.2,0-.4,0l-2.5-1.4c-1-.6-2.2-.5-3.1.2-.7.5-1.5,1-2.3,1.3Z"/>
  <path class="st0" d="M40,35.8c-2.3,0-4.2,1.9-4.2,4.2s1.9,4.2,4.2,4.2,4.2-1.9,4.2-4.2-1.9-4.2-4.2-4.2ZM40,41.9c-1,0-1.9-.8-1.9-1.9s.8-1.9,1.9-1.9,1.9.8,1.9,1.9-.8,1.9-1.9,1.9Z"/>
  <path class="st0" d="M40,30.9c-5,0-9.1,4.1-9.1,9.1s4.1,9.1,9.1,9.1,9.1-4.1,9.1-9.1-4.1-9.1-9.1-9.1ZM40,46.7c-3.7,0-6.7-3-6.7-6.7s3-6.7,6.7-6.7,6.7,3,6.7,6.7-3,6.7-6.7,6.7Z"/>
</svg>