<?xml version="1.0" encoding="UTF-8"?>
<svg id="Layer_1" xmlns="http://www.w3.org/2000/svg" version="1.1" viewBox="0 0 81 81">
  <!-- Generator: Adobe Illustrator 29.0.0, SVG Export Plug-In . SVG Version: 2.1.0 Build 186)  -->
  <defs>
    <style>
      .st0 {
        fill: #1c2e5d;
      }
    </style>
  </defs>
  <path class="st0" d="M56.4,35.1c.5-.1.9-.6.9-1.1v-4.2c0-.5-.4-1-.9-1.1l-2.9-.8c-.3-.9-.6-1.7-1-2.5l1.5-2.6c.3-.5.2-1-.2-1.4l-3-3c-.4-.4-1-.5-1.4-.2l-2.6,1.5c-.8-.4-1.6-.8-2.5-1l-.8-2.9c-.1-.5-.6-.9-1.1-.9h-4.2c-.5,0-1,.4-1.1.9l-.8,2.9c-.9.3-1.7.6-2.5,1l-2.6-1.5c-.5-.3-1-.2-1.4.2l-3,3c-.4.4-.5,1-.2,1.4l1.5,2.6c-.4.8-.8,1.6-1,2.5l-2.9.8c-.5.1-.9.6-.9,1.1v4.2c0,.5.4,1,.9,1.1l2.9.8c.3.9.6,1.7,1,2.5l-1.5,2.6c-.3.5-.2,1,.2,1.4l3,3c.4.4,1,.5,1.4.2l2.6-1.5c.8.4,1.6.8,2.5,1l.8,2.9c.1.5.6.9,1.1.9h4.2c.5,0,1-.4,1.1-.9l.8-2.9c.9-.3,1.7-.6,2.5-1l2.6,1.5c.5.3,1,.2,1.4-.2l3-3c.4-.4.5-1,.2-1.4l-1.5-2.6c.4-.8.8-1.6,1-2.5l2.9-.8ZM39.1,46.4l-.7-2.5v-6.8c0-.5-.2-.9-.7-1.1-1.9-.7-3-2.5-3-4.9s.7-3,1.9-4v3.5c0,.4.2.7.5.9l2.5,2c.4.3,1,.3,1.4,0l2.5-2c.3-.2.5-.6.5-.9v-3.4c1.2,1,1.9,2.4,1.9,4,0,2.4-1.1,4.2-3,4.9-.5.2-.7.6-.7,1.1v6.8s-.6,2.5-.6,2.5h-2.4ZM52.2,33.7c-.4.1-.7.4-.8.9-.3,1.1-.7,2.2-1.3,3.1-.2.4-.2.8,0,1.2l1.4,2.4-1.7,1.7-2.4-1.4c-.4-.2-.8-.2-1.2,0-.5.3-1.1.6-1.7.8v-4.6c2.3-1.2,3.7-3.7,3.7-6.7s-1.9-5.9-5-7.1c-.9-.2-1.6.1-1.6,1.1v4.9l-1.4,1.1-1.4-1.1v-4.9c-.1-.9-.7-1.3-1.6-1.1-3,1.2-5,4-5,7.1s1.4,5.5,3.7,6.7v4.6c-.6-.2-1.2-.5-1.7-.8-.4-.2-.8-.2-1.2,0l-2.4,1.4-1.7-1.7,1.4-2.4c.2-.4.2-.8,0-1.2-.6-1-1-2-1.3-3.1-.1-.4-.4-.7-.8-.9l-2.7-.7v-2.4l2.7-.7c.4-.1.7-.4.8-.9.3-1.1.7-2.2,1.3-3.1.2-.4.2-.8,0-1.2l-1.4-2.4,1.7-1.7,2.4,1.4c.4.2.8.2,1.2,0,1-.6,2-1,3.1-1.3.4-.1.7-.4.9-.8l.7-2.7h2.4l.7,2.7c.1.4.4.7.9.8,1.1.3,2.2.7,3.1,1.3.4.2.8.2,1.2,0l2.4-1.4,1.7,1.7-1.4,2.4c-.2.4-.2.8,0,1.2.6,1,1,2,1.3,3.1.1.4.4.7.8.9l2.7.7v2.4l-2.7.7Z"/>
  <path class="st0" d="M75.1,5.2h-32.8c-.6,0-1.2.5-1.2,1.2s.5,1.2,1.2,1.2h32.8c1.6,0,2.9,1.3,2.9,2.9v47.5c0,1.9-.9,2.8-2.8,2.8h-17.7c-.6,0-1.2.5-1.2,1.2s.5,1.2,1.2,1.2h17.7c3.2,0,5.2-1.9,5.2-5.2V10.4c0-2.8-2.4-5.2-5.2-5.2Z"/>
  <path class="st0" d="M74.3,30.4c.6,0,1.2-.5,1.2-1.2V11.1c0-.6-.5-1.2-1.2-1.2H6.4c-.6,0-1.2.5-1.2,1.2v41c0,.6.5,1.2,1.2,1.2h67.9c.6,0,1.2-.5,1.2-1.2v-17.8c0-.6-.5-1.2-1.2-1.2s-1.2.5-1.2,1.2v16.6H7.5V12.3h65.6v16.9c0,.6.5,1.2,1.2,1.2Z"/>
  <path class="st0" d="M54.9,68.2h-6.4l-1.7-5.1h5.5c.6,0,1.2-.5,1.2-1.2s-.5-1.2-1.2-1.2H5.5c-1.6,0-2.8-1.3-2.8-2.8V10.4c0-1.6,1.3-2.9,2.9-2.9h31.7c.6,0,1.2-.5,1.2-1.2s-.5-1.2-1.2-1.2H5.6C2.7,5.2.3,7.6.3,10.4v47.5c0,2.8,2.3,5.2,5.2,5.2h28.4l-1.7,5.1h-6.4c-.6,0-1.2.5-1.2,1.2v4.9c0,.6.5,1.2,1.2,1.2h29.1c.6,0,1.2-.5,1.2-1.2v-4.9c0-.6-.5-1.2-1.2-1.2ZM36.3,63.1h8l1.7,5.1h-11.3l1.7-5.1ZM53.7,73.1h-26.8v-2.5h26.8v2.5h0Z"/>
  <path class="st0" d="M40.3,58.4c-.6,0-1.2-.5-1.2-1.2s.5-1.2,1.2-1.2,1.2.5,1.2,1.2-.5,1.2-1.2,1.2Z"/>
  <path class="st0" d="M45.2,58.4c-.6,0-1.2-.5-1.2-1.2s.5-1.2,1.2-1.2,1.2.5,1.2,1.2-.5,1.2-1.2,1.2Z"/>
  <path class="st0" d="M35.5,58.4c-.6,0-1.2-.5-1.2-1.2s.5-1.2,1.2-1.2,1.2.5,1.2,1.2-.5,1.2-1.2,1.2Z"/>
</svg>